// Created by Crowbar++ 0.74
version 1
nodes
  0 "ValveBiped.Bip01_Pelvis" -1
  1 "ValveBiped.Bip01_Spine" 0
  2 "ValveBiped.Bip01_Spine1" 1
  3 "ValveBiped.Bip01_Spine2" 2
  4 "ValveBiped.Bip01_Spine4" 3
  5 "ValveBiped.Bip01_Neck1" 4
  6 "ValveBiped.Bip01_Head1" 5
  7 "ValveBiped.forward" 6
  8 "ValveBiped.Bip01_L_Clavicle" 4
  9 "ValveBiped.Bip01_L_UpperArm" 8
  10 "ValveBiped.Bip01_L_Forearm" 9
  11 "ValveBiped.Bip01_L_Hand" 10
  12 "ValveBiped.Anim_Attachment_LH" 11
  13 "ValveBiped.Bip01_L_Finger4" 11
  14 "ValveBiped.Bip01_L_Finger41" 13
  15 "ValveBiped.Bip01_L_Finger42" 14
  16 "ValveBiped.Bip01_L_Finger3" 11
  17 "ValveBiped.Bip01_L_Finger31" 16
  18 "ValveBiped.Bip01_L_Finger32" 17
  19 "ValveBiped.Bip01_L_Finger2" 11
  20 "ValveBiped.Bip01_L_Finger21" 19
  21 "ValveBiped.Bip01_L_Finger22" 20
  22 "ValveBiped.Bip01_L_Finger1" 11
  23 "ValveBiped.Bip01_L_Finger11" 22
  24 "ValveBiped.Bip01_L_Finger12" 23
  25 "ValveBiped.Bip01_L_Finger0" 11
  26 "ValveBiped.Bip01_L_Finger01" 25
  27 "ValveBiped.Bip01_L_Finger02" 26
  28 "ValveBiped.Bip01_R_Clavicle" 4
  29 "ValveBiped.Bip01_R_UpperArm" 28
  30 "ValveBiped.Bip01_R_Forearm" 29
  31 "ValveBiped.Bip01_R_Hand" 30
  32 "ValveBiped.Anim_Attachment_RH" 31
  33 "ValveBiped.Bip01_R_Finger4" 31
  34 "ValveBiped.Bip01_R_Finger41" 33
  35 "ValveBiped.Bip01_R_Finger42" 34
  36 "ValveBiped.Bip01_R_Finger3" 31
  37 "ValveBiped.Bip01_R_Finger31" 36
  38 "ValveBiped.Bip01_R_Finger32" 37
  39 "ValveBiped.Bip01_R_Finger2" 31
  40 "ValveBiped.Bip01_R_Finger21" 39
  41 "ValveBiped.Bip01_R_Finger22" 40
  42 "ValveBiped.Bip01_R_Finger1" 31
  43 "ValveBiped.Bip01_R_Finger11" 42
  44 "ValveBiped.Bip01_R_Finger12" 43
  45 "ValveBiped.Bip01_R_Finger0" 31
  46 "ValveBiped.Bip01_R_Finger01" 45
  47 "ValveBiped.Bip01_R_Finger02" 46
  48 "ValveBiped.Bip01_L_Thigh" 0
  49 "ValveBiped.Bip01_L_Calf" 48
  50 "ValveBiped.Bip01_L_Foot" 49
  51 "ValveBiped.Bip01_L_Toe0" 50
  52 "ValveBiped.Bip01_R_Thigh" 0
  53 "ValveBiped.Bip01_R_Calf" 52
  54 "ValveBiped.Bip01_R_Foot" 53
  55 "ValveBiped.Bip01_R_Toe0" 54
  56 "ValveBiped.Bip2" 0
  57 "ValveBiped.Bip3" 0
  58 "ValveBiped.Bip4" 0
  59 "ValveBiped.Bip5" 0
  60 "ValveBiped.Bip8" 0
  61 "ValveBiped.Bip9" 0
  62 "ValveBiped.Bip10" 0
  63 "ValveBiped.Bip11" 0
  64 "ValveBiped.Bip12" 0
  65 "ValveBiped.Bip1" 64
  66 "ValveBiped.Bip7" 0
  67 "ValveBiped.Bip6" 66
  68 "ValveBiped.Bip14" 0
  69 "ValveBiped.Bip13" 68
  70 "pd.103" 4
  71 "pd.104" 4
  72 "pd.128" 56
  73 "pd.129" 72
  74 "pd.130" 73
  75 "pd.131" 74
  76 "pd.132" 57
  77 "pd.133" 76
  78 "pd.134" 77
  79 "pd.135" 78
  80 "pd.136" 58
  81 "pd.137" 80
  82 "pd.138" 81
  83 "pd.139" 82
  84 "pd.140" 59
  85 "pd.141" 84
  86 "pd.142" 85
  87 "pd.143" 86
  88 "pd.144" 60
  89 "pd.145" 88
  90 "pd.146" 89
  91 "pd.147" 90
  92 "pd.148" 61
  93 "pd.149" 92
  94 "pd.150" 93
  95 "pd.151" 94
  96 "pd.152" 62
  97 "pd.153" 96
  98 "pd.154" 97
  99 "pd.155" 98
  100 "pd.156" 63
  101 "pd.157" 100
  102 "pd.158" 101
  103 "pd.159" 102
  104 "pd.160" 65
  105 "pd.161" 104
  106 "pd.162" 105
  107 "pd.163" 106
  108 "pd.164" 67
  109 "pd.165" 108
  110 "pd.166" 109
  111 "pd.167" 110
  112 "pd" 6
  113 "pd.001" 6
  114 "pd.002" 6
  115 "pd.003" 6
  116 "pd.004" 6
  117 "pd.005" 6
  118 "pd.006" 6
  119 "pd.007" 6
  120 "pd.008" 6
  121 "pd.015" 6
  122 "pd.016" 121
  123 "pd.017" 122
  124 "pd.018" 123
  125 "pd.019" 124
  126 "pd.020" 125
  127 "pd.021" 126
  128 "pd.022" 127
  129 "pd.023" 128
  130 "pd.024" 129
  131 "pd.025" 130
  132 "pd.026" 131
  133 "pd.027" 132
  134 "pd.028" 133
  135 "pd.029" 134
  136 "pd.030" 135
  137 "pd.031" 136
  138 "pd.032" 137
  139 "pd.033" 138
  140 "pd.034" 128
  141 "pd.035" 140
  142 "pd.036" 141
  143 "pd.037" 142
  144 "pd.038" 143
  145 "pd.039" 144
  146 "pd.040" 145
  147 "pd.041" 146
  148 "pd.042" 147
  149 "pd.043" 148
  150 "pd.044" 149
  151 "pd.045" 150
  152 "pd.046" 151
  153 "pd.047" 128
  154 "pd.048" 153
  155 "pd.049" 154
  156 "pd.050" 155
  157 "pd.051" 156
  158 "pd.052" 157
  159 "pd.053" 158
  160 "pd.054" 159
  161 "pd.055" 160
  162 "pd.056" 161
  163 "pd.057" 162
  164 "pd.058" 6
  165 "pd.059" 164
  166 "pd.060" 165
  167 "pd.061" 166
  168 "pd.062" 167
  169 "pd.063" 168
  170 "pd.064" 169
  171 "pd.065" 170
  172 "pd.066" 171
  173 "pd.067" 172
  174 "pd.068" 173
  175 "pd.069" 174
  176 "pd.070" 175
  177 "pd.071" 176
  178 "pd.072" 177
  179 "pd.073" 178
  180 "pd.074" 179
  181 "pd.075" 180
  182 "pd.076" 181
  183 "pd.077" 171
  184 "pd.078" 183
  185 "pd.079" 184
  186 "pd.080" 185
  187 "pd.081" 186
  188 "pd.082" 187
  189 "pd.083" 188
  190 "pd.084" 189
  191 "pd.085" 190
  192 "pd.086" 191
  193 "pd.087" 192
  194 "pd.088" 193
  195 "pd.089" 194
  196 "pd.090" 171
  197 "pd.091" 196
  198 "pd.092" 197
  199 "pd.093" 198
  200 "pd.094" 199
  201 "pd.095" 200
  202 "pd.096" 201
  203 "pd.097" 202
  204 "pd.098" 203
  205 "pd.099" 204
  206 "pd.100" 205
  207 "pd.107" 1
  208 "pd.108" 207
  209 "pd.109" 208
  210 "pd.110" 209
  211 "pd.111" 207
  212 "pd.112" 211
  213 "pd.113" 212
  214 "pd.114" 213
  215 "pd.115" 207
  216 "pd.116" 215
  217 "pd.117" 216
  218 "pd.118" 207
  219 "pd.119" 218
  220 "pd.120" 219
  221 "pd.121" 207
  222 "pd.122" 221
  223 "pd.123" 222
  224 "pd.124" 223
  225 "pd.125" 207
  226 "pd.126" 225
  227 "pd.127" 226
  228 "pd.009" 6
  229 "pd.010" 228
  230 "pd.011" 228
  231 "pd.012" 6
  232 "pd.013" 231
  233 "pd.014" 231
  234 "pd.101" 6
  235 "pd.102" 6
  236 "pd.105" 4
  237 "pd.106" 4
  238 "pd.168" 69
  239 "pd.169" 238
  240 "pd.170" 239
  241 "pd.171" 240
  242 "pd.172" 241
  243 "pd.173" 242
  244 "pd.174" 243
end
skeleton
  time 0
    0 0.000000 -0.967105 44.122166 1.570796 0.000000 0.000000
    1 0.000000 3.523758 0.029950 1.570796 -0.027985 1.570796
    2 0.000000 0.000000 0.000000 0.000000 0.000000 -0.112621
    3 3.710045 0.150944 -0.000002 0.000000 0.000000 -0.012638
    4 0.000004 -0.000001 0.000000 0.000000 0.000000 0.155823
    5 8.192108 -2.246392 -0.000003 3.141589 0.000000 0.224089
    6 2.810970 0.786394 0.000004 0.000000 0.000000 0.109869
    7 0.000000 0.000000 0.000000 -1.570795 0.000000 -1.326470
    8 7.248871 -2.063121 0.799392 1.638345 -1.334142 2.900122
    9 3.406890 -0.117195 -0.331688 -1.453546 0.015826 0.236135
    10 8.927933 0.000001 -0.000004 0.000000 0.000000 0.000000
    11 8.244890 0.000000 -0.000004 1.570796 0.000000 0.000000
    12 2.676094 -1.712418 -0.000012 1.570821 -0.000023 1.570619
    13 2.602129 0.043274 -1.213689 0.000000 0.000000 0.000000
    14 0.978357 0.000000 0.000000 0.000000 0.000000 0.000000
    15 0.578138 0.000000 0.000000 0.000000 0.000000 0.000000
    16 2.666882 0.187336 -0.542830 0.000000 0.000000 0.000000
    17 1.355406 0.000000 0.000000 0.000000 0.000000 0.000000
    18 0.832703 0.000000 0.000000 0.000000 0.000000 0.000000
    19 2.710474 0.161205 0.196588 0.000000 0.000000 0.000000
    20 1.473167 0.000000 0.000000 0.000000 0.000000 0.000000
    21 0.846321 0.000000 0.000000 0.000000 0.000000 0.000000
    22 2.591167 0.126434 0.967711 0.000000 0.000000 0.000000
    23 1.352854 0.000000 0.000000 0.000000 0.000000 0.000000
    24 0.781221 0.000000 0.000000 0.000000 0.000000 0.000000
    25 0.584726 -0.519913 0.370771 -1.301623 -0.446182 -0.627531
    26 1.518351 -0.367496 0.544430 0.000854 0.001836 0.392753
    27 0.979181 -0.236278 0.537338 0.004490 0.012339 0.062293
    28 7.248871 -2.063119 -0.799398 -1.710090 1.334149 2.900126
    29 3.406892 -0.140697 0.322426 1.523337 -0.032557 0.234439
    30 8.927931 -0.000001 0.000004 0.000000 0.000000 0.000000
    31 8.244888 -0.000001 0.000004 -1.570796 0.000000 0.000000
    32 2.676144 -1.712357 0.000080 -1.570742 -0.000010 -1.571256
    33 2.602133 0.043266 1.213689 0.000000 0.000000 0.000000
    34 0.978361 -0.000004 0.000000 0.000000 0.000000 0.000000
    35 0.578136 0.000000 0.000000 0.000000 0.000000 0.000000
    36 2.666882 0.187328 0.542829 0.000000 0.000000 0.000000
    37 1.355406 0.000000 0.000000 0.000000 0.000000 0.000000
    38 0.832703 -0.000004 0.000000 0.000000 0.000000 0.000000
    39 2.710476 0.161201 -0.196589 0.000000 0.000000 0.000000
    40 1.473166 0.000000 0.000000 0.000000 0.000000 0.000000
    41 0.846323 -0.000004 0.000000 0.000000 0.000000 0.000000
    42 2.591166 0.126427 -0.967711 0.000000 0.000000 0.000000
    43 1.352856 0.000000 0.000000 0.000000 0.000000 0.000000
    44 0.781223 -0.000004 0.000000 0.000000 0.000000 0.000000
    45 0.584728 -0.519913 -0.370771 1.301648 0.446144 -0.627495
    46 1.518348 -0.367567 -0.544395 -0.000880 -0.001832 0.392738
    47 0.979185 -0.236300 -0.537319 -0.004467 -0.012334 0.062301
    48 3.050961 -1.782368 -1.228622 -1.570796 0.000000 -1.570796
    49 16.332626 -0.000004 -0.000009 0.000000 0.000000 0.000000
    50 20.043091 -0.000004 -0.000011 0.014671 -0.023907 -1.075671
    51 6.307809 1.971855 -0.164771 -0.011148 0.000933 -0.500514
    52 -3.050961 -1.782368 -1.228622 -1.570796 0.000000 -1.570796
    53 16.332621 -0.000004 -0.000005 0.000000 0.000000 0.000000
    54 20.043093 -0.000004 -0.000006 -0.010594 0.011412 -1.078506
    55 6.303392 1.991225 0.078041 -0.078652 -0.006186 -0.498944
    56 2.711403 5.259277 3.132617 1.371211 -0.247101 0.301329
    57 4.387142 5.259281 1.076985 1.499231 -0.393673 0.422072
    58 4.387142 5.259281 -1.463916 1.706652 -0.391307 0.342493
    59 2.711402 5.259277 -3.519549 1.901471 -0.238775 0.170884
    60 -2.711403 5.259277 -3.519548 1.901471 0.237171 -0.169732
    61 -4.387142 5.259281 -1.463915 1.706652 0.388846 -0.340325
    62 -4.387142 5.259281 1.076986 1.499232 0.391200 -0.419431
    63 -2.711403 5.259277 3.132617 1.371210 0.245443 -0.299324
    64 0.000000 5.259277 3.917799 1.323785 0.000000 0.000000
    65 0.000000 0.000000 0.000004 0.000000 0.000000 0.000000
    66 0.000000 5.259281 -4.304729 1.970281 0.000000 0.000000
    67 0.000000 -0.000004 0.000004 0.000000 0.000000 0.000000
    68 0.000000 3.365860 -2.270664 -3.016978 0.000000 0.000000
    69 0.000000 0.000004 0.000000 0.000000 0.000000 0.000000
    70 3.894241 1.243716 -2.273654 1.965025 -0.040515 3.131485
    71 3.894238 1.243715 2.273654 -1.176566 -0.040514 -0.010107
    72 -0.021326 -0.017084 3.075672 0.022751 -0.028101 -0.026980
    73 -0.073547 -0.051170 4.743092 0.032584 -0.044850 -0.044624
    74 -0.077495 -0.047066 5.165989 0.026438 -0.041664 -0.042026
    75 -0.074110 -0.038752 5.888031 0.018344 -0.034146 -0.034681
    76 -0.032290 -0.011740 3.170059 0.014622 -0.041277 -0.035567
    77 -0.107449 -0.020611 4.862347 0.013008 -0.064785 -0.059688
    78 -0.111515 -0.002520 5.261139 0.002053 -0.060101 -0.057736
    79 -0.106655 0.014372 5.961823 -0.006441 -0.049617 -0.049160
    80 -0.026825 0.001395 3.190907 -0.002934 -0.034445 -0.029117
    81 -0.089855 0.025994 4.906704 -0.016522 -0.055039 -0.049700
    82 -0.095390 0.049047 5.307724 -0.026490 -0.052409 -0.049634
    83 -0.093845 0.065496 6.001842 -0.030397 -0.044484 -0.043642
    84 -0.011630 0.020613 3.179478 -0.027449 -0.015638 -0.015519
    85 -0.042721 0.080910 4.884434 -0.050135 -0.027670 -0.027213
    86 -0.049829 0.096235 5.281723 -0.052275 -0.028571 -0.028122
    87 -0.052511 0.100945 5.976290 -0.046859 -0.025621 -0.025339
    88 0.015903 0.021338 3.177238 -0.028113 0.020374 0.018820
    89 0.047289 0.081381 4.877136 -0.050187 0.028997 0.027920
    90 0.043223 0.094965 5.276382 -0.051666 0.023554 0.024140
    91 0.035468 0.098776 5.977041 -0.046042 0.016383 0.018087
    92 0.033083 0.003553 3.185020 -0.004793 0.041400 0.035424
    93 0.096363 0.027191 4.887688 -0.016423 0.056944 0.051228
    94 0.084818 0.045254 5.293816 -0.024684 0.044623 0.042711
    95 0.067105 0.059410 6.003803 -0.028195 0.030099 0.031089
    96 0.038330 -0.009118 3.164131 0.012460 0.047969 0.043268
    97 0.113415 -0.019338 4.843170 0.013353 0.066404 0.061570
    98 0.100536 -0.007123 5.247093 0.004238 0.052229 0.049703
    99 0.079924 0.007468 5.963799 -0.004057 0.035424 0.035002
    100 0.025406 -0.015861 3.073360 0.021744 0.032580 0.032742
    101 0.077185 -0.050655 4.735600 0.032812 0.045605 0.045842
    102 0.069947 -0.049222 5.160545 0.027450 0.036395 0.036073
    103 0.056913 -0.041794 5.888805 0.019348 0.025229 0.024706
    104 0.000001 -0.022074 3.017406 0.029728 -0.000001 0.000000
    105 0.000007 -0.072325 4.674877 0.045213 0.000001 0.000000
    106 0.000004 -0.072306 5.116188 0.039499 -0.000001 0.000000
    107 0.000008 -0.065177 5.851667 0.030159 -0.000003 0.000000
    108 0.000000 0.027422 3.170170 -0.036187 0.000000 0.000000
    109 0.000002 0.099876 4.862431 -0.061972 0.000000 0.000000
    110 0.000003 0.111992 5.256622 -0.061199 0.000001 0.000000
    111 -0.000001 0.112280 5.953030 -0.052385 -0.000003 0.000000
    112 3.761497 -0.484362 -3.660547 -0.900179 1.161913 2.643719
    113 3.752853 -1.560328 -3.605245 -0.789065 0.912032 2.532620
    114 4.474640 -3.523696 -2.361130 2.675599 0.700163 -0.932028
    115 7.239937 -2.863720 -1.353375 2.392258 1.211417 -0.648675
    116 5.828751 -3.266319 -0.422032 2.581944 0.323357 -0.838376
    117 6.404037 -2.955704 0.813580 2.356718 1.046823 -0.613147
    118 3.398285 -0.913291 3.507390 2.329320 1.057333 -0.585752
    119 3.304718 -2.181828 3.297226 2.389322 1.112993 -0.645736
    120 5.089508 -2.145199 2.833681 2.371626 1.510808 -0.628243
    121 3.309242 3.021448 2.807659 0.145870 0.352522 1.597699
    122 -0.000002 1.299175 0.000000 2.863876 -1.026024 0.140310
    123 1.483128 0.889118 -0.760393 -1.723425 -0.954308 -2.931849
    124 0.000001 0.000006 1.098301 -0.011182 0.114293 0.088735
    125 -0.031181 -0.045309 2.776104 0.072845 -0.059048 -0.048706
    126 -0.063147 -0.055231 3.387466 0.053852 -0.069808 -0.055545
    127 -0.073409 -0.021782 3.800297 0.017832 -0.053762 -0.039335
    128 0.000000 0.000000 1.901588 -0.191357 0.059709 0.055031
    129 0.508658 0.249132 2.020947 0.152654 -0.080674 -0.091023
    130 -0.021115 -0.005932 3.975941 0.018894 -0.028664 -0.023641
    131 -0.068426 0.014626 3.999939 -0.000226 -0.062980 -0.043719
    132 -0.007289 0.005527 4.039022 0.012551 0.027198 0.016563
    133 -0.000628 -0.025537 3.672590 0.024792 0.003099 -0.002792
    134 -0.135418 -0.087128 4.137640 0.062914 0.003334 -0.010280
    135 0.098037 -0.014038 3.938133 0.050502 0.075713 0.040403
    136 0.000000 0.000000 1.657495 0.041547 0.036246 0.016576
    137 0.152488 -0.043791 3.310966 0.069626 0.165611 0.093920
    138 0.319344 -0.179604 4.414724 0.182635 0.192651 0.123485
    139 0.315797 -0.299946 4.960559 -0.172145 0.156200 0.030440
    140 -1.403287 -1.245106 1.653469 0.359794 -0.150586 -0.212232
    141 -0.036385 -0.040253 4.010429 0.027873 -0.013964 -0.014459
    142 0.039886 -0.009483 4.181780 0.011456 0.007395 0.001500
    143 -0.012575 0.024719 4.669813 -0.037712 -0.000559 0.008144
    144 0.003522 0.076195 4.128000 -0.144606 0.004083 0.033468
    145 0.057060 0.140339 3.777660 -0.156636 0.079873 0.079571
    146 -0.000002 0.000002 1.827112 -0.096845 0.068789 0.065894
    147 0.000005 0.000008 1.819405 -0.025411 0.082010 0.074106
    148 -0.000027 0.000006 1.796610 -0.053664 0.068113 0.061034
    149 0.143147 0.090977 3.417555 -0.078907 0.233384 0.206127
    150 0.299864 0.076643 3.734957 0.073279 0.346200 0.399053
    151 0.205663 -0.102530 3.289310 0.188572 0.187720 0.357340
    152 0.187447 -0.369926 3.245319 0.063889 -0.263370 -0.208770
    153 2.697930 0.437963 2.522320 0.120394 0.014650 0.003640
    154 -0.107486 -0.161879 4.179699 0.166631 -0.086351 -0.087082
    155 -0.105448 -0.232380 4.477386 0.197241 -0.070590 -0.081981
    156 -0.054009 -0.142471 4.558023 0.126629 -0.045738 -0.050372
    157 -0.032272 -0.069145 3.613425 0.064674 -0.047010 -0.035167
    158 -0.037061 0.026768 3.770075 -0.065050 -0.050752 -0.000997
    159 -0.069773 0.200871 3.797598 -0.258059 -0.065538 0.050786
    160 -0.097511 0.349506 3.709995 -0.367298 -0.091252 0.075873
    161 -0.030209 0.308874 3.588842 -0.337832 0.077508 0.172665
    162 0.153002 0.295004 3.523855 -0.288480 0.299089 0.389546
    163 0.192851 0.188094 2.468798 0.033129 0.438087 0.812831
    164 3.309235 3.021465 -2.807641 -2.995720 0.352528 -1.543893
    165 0.000000 1.299175 0.000000 2.863876 1.026010 -0.140306
    166 -1.483133 0.889126 -0.760418 -1.723435 0.954314 2.931837
    167 -0.000006 -0.000002 1.098301 -0.011182 -0.114298 -0.088737
    168 0.031177 -0.045311 2.776096 0.072845 0.059047 0.048706
    169 0.063149 -0.055231 3.387466 0.053852 0.069808 0.055545
    170 0.073413 -0.021780 3.800289 0.017832 0.053764 0.039335
    171 0.000002 -0.000002 1.901588 -0.191357 -0.059713 -0.055024
    172 -0.508654 0.249136 2.020947 0.152655 0.080680 0.091018
    173 0.021119 -0.005928 3.975933 0.018894 0.028663 0.023643
    174 0.068434 0.014627 3.999947 -0.000226 0.062982 0.043718
    175 0.007291 0.005524 4.039026 0.012551 -0.027196 -0.016564
    176 0.000624 -0.025537 3.672588 0.024791 -0.003099 0.002793
    177 0.135412 -0.087130 4.137642 0.062914 -0.003335 0.010281
    178 -0.098038 -0.014040 3.938129 0.050502 -0.075712 -0.040404
    179 0.000000 0.000000 1.657490 0.041547 -0.036248 -0.016575
    180 -0.152492 -0.043795 3.310970 0.069626 -0.165611 -0.093922
    181 -0.319357 -0.179602 4.414725 0.182634 -0.192652 -0.123486
    182 -0.315814 -0.299955 4.960563 -0.172145 -0.156203 -0.030440
    183 1.403308 -1.245113 1.653461 0.359794 0.150591 0.212228
    184 0.036398 -0.040260 4.010426 0.027874 0.013967 0.014459
    185 -0.039887 -0.009483 4.181797 0.011455 -0.007395 -0.001500
    186 0.012575 0.024708 4.669821 -0.037712 0.000559 -0.008144
    187 -0.003523 0.076199 4.128008 -0.144605 -0.004083 -0.033468
    188 -0.057062 0.140339 3.777658 -0.156635 -0.079873 -0.079572
    189 0.000000 0.000006 1.827118 -0.096844 -0.068790 -0.065895
    190 -0.000009 0.000010 1.819410 -0.025411 -0.082011 -0.074107
    191 0.000027 0.000004 1.796608 -0.053664 -0.068114 -0.061034
    192 -0.143153 0.090969 3.417557 -0.078908 -0.233386 -0.206128
    193 -0.299873 0.076631 3.734959 0.073278 -0.346198 -0.399055
    194 -0.205668 -0.102563 3.289330 0.188570 -0.187718 -0.357339
    195 -0.187449 -0.369966 3.245340 0.063889 0.263368 0.208768
    196 -2.697953 0.437979 2.522327 0.120394 -0.014646 -0.003645
    197 0.107490 -0.161877 4.179699 0.166631 0.086351 0.087082
    198 0.105456 -0.232386 4.477375 0.197240 0.070591 0.081982
    199 0.054015 -0.142471 4.558029 0.126629 0.045739 0.050372
    200 0.032275 -0.069153 3.613431 0.064673 0.047011 0.035167
    201 0.037062 0.026764 3.770080 -0.065051 0.050752 0.000997
    202 0.069780 0.200867 3.797603 -0.258059 0.065538 -0.050786
    203 0.097515 0.349510 3.710004 -0.367299 0.091254 -0.075876
    204 0.030205 0.308855 3.588852 -0.337830 -0.077508 -0.172666
    205 -0.153004 0.295002 3.523855 -0.288478 -0.299090 -0.389552
    206 -0.192861 0.188094 2.468803 0.033133 -0.438087 -0.812839
    207 3.038773 -3.186367 -0.000004 0.000000 -1.570796 -1.598781
    208 -1.259778 -0.110737 0.228234 1.581472 1.308281 -1.297982
    209 -0.000001 0.000000 1.663316 0.000004 -0.000002 -0.000002
    210 0.000000 0.000000 1.663315 -0.000002 0.000000 0.000000
    211 -1.301082 -0.448425 -0.122918 2.040421 0.526409 -0.327875
    212 0.000001 0.000004 4.296974 0.216396 0.205320 0.064361
    213 0.000000 0.000000 5.293940 -0.136099 0.001000 0.029709
    214 0.000002 0.000004 4.673290 -0.052714 0.003415 0.013170
    215 -1.181794 -0.334217 -0.513912 2.246439 0.707787 -0.351069
    216 0.000001 -0.000008 4.514694 0.102094 0.071610 -0.013054
    217 0.000005 0.000004 4.566620 -0.095016 0.147985 0.081109
    218 1.259783 -0.110741 0.228234 1.581473 -1.308280 1.297974
    219 0.000001 0.000000 1.663319 0.000004 0.000002 0.000003
    220 -0.000003 0.000004 1.663315 -0.000001 -0.000001 0.000001
    221 1.301088 -0.448425 -0.122919 2.040421 -0.526409 0.327874
    222 0.000000 0.000000 4.296982 0.216396 -0.205320 -0.064361
    223 0.000000 -0.000004 5.293945 -0.136099 -0.001000 -0.029708
    224 -0.000002 0.000004 4.673294 -0.052713 -0.003415 -0.013171
    225 1.181799 -0.334221 -0.513912 2.246439 -0.707787 0.351070
    226 0.000000 0.000004 4.514696 0.102093 -0.071611 0.013055
    227 0.000000 0.000000 4.566618 -0.095016 -0.147985 -0.081109
    228 6.151886 0.783840 1.728969 0.536693 0.361792 1.206873
    229 0.000000 0.000011 2.411968 0.020495 0.016009 -0.025840
    230 -0.631569 -0.002724 1.030853 -0.105429 0.014364 0.078393
    231 6.151878 0.783848 -1.729018 -2.604900 0.361798 -1.934721
    232 0.000004 0.000008 2.411964 0.020495 -0.016009 0.025840
    233 0.631573 -0.002724 1.030849 -0.105429 -0.014364 -0.078393
    234 1.230007 -0.544867 -2.682516 2.356555 1.563104 -0.612323
    235 1.230003 -0.544881 2.682512 -0.785755 1.563102 2.528558
    236 7.641582 1.695580 0.170169 -0.854575 -0.689729 0.657673
    237 7.641582 1.695581 -0.170173 2.287016 -0.689729 -2.483919
    238 0.000000 0.000004 2.319757 -0.210121 0.000000 0.000000
    239 0.000000 -0.000011 2.593413 -0.089771 0.000000 0.000000
    240 0.000001 -0.000019 2.777902 -0.004359 0.000000 0.000000
    241 0.000000 -0.000019 2.801039 0.078065 0.000000 0.000000
    242 0.000001 -0.000011 2.659531 0.187856 0.000000 0.000000
    243 0.000000 -0.000004 2.413889 0.343753 0.000000 0.000000
    244 0.000000 0.000023 2.236877 0.463603 0.000000 0.000000
end
triangles
black
  0 -0.887986 -0.800774 60.328461 0.518346 -0.276385 0.809276 0.234682 0.957154 1 0 1.000000
  0 -0.392550 -1.371745 59.705730 0.735094 0.662669 -0.143203 0.234682 0.816444 1 0 1.000000
  0 -0.891151 -0.721997 60.246971 0.662501 0.709196 -0.241109 0.234682 0.957154 1 0 1.000000
black
  0 -1.208350 -0.777869 60.082233 0.607457 0.727061 -0.319966 0.289954 0.957154 1 0 1.000000
  0 -0.891151 -0.721997 60.246971 0.662501 0.709196 -0.241109 0.234682 0.957154 1 0 1.000000
  0 -0.392550 -1.371745 59.705730 0.735094 0.662669 -0.143203 0.234682 0.816444 1 0 1.000000
black
  0 -0.887986 -0.800774 60.328461 0.518346 -0.276385 0.809276 0.234682 0.957154 1 0 1.000000
  0 -0.389385 -1.450508 59.787262 0.422588 -0.299520 0.855399 0.234682 0.816444 1 0 1.000000
  0 -0.392550 -1.371745 59.705730 0.735094 0.662669 -0.143203 0.234682 0.816444 1 0 1.000000
black
  0 -0.389385 -1.450508 59.787262 0.422588 -0.299520 0.855399 0.234682 0.816444 1 0 1.000000
  0 -0.887986 -0.800774 60.328461 0.518346 -0.276385 0.809276 0.234682 0.957154 1 0 1.000000
  0 -1.205184 -0.856611 60.163715 -0.607498 -0.727041 0.319933 0.289954 0.957154 1 0 1.000000
black
  0 -0.392550 -1.371745 59.705730 0.735094 0.662669 -0.143203 0.234682 0.816444 1 0 1.000000
  0 -0.709749 -1.329887 59.503555 0.571838 0.645365 -0.506463 0.289954 0.816444 1 0 1.000000
  0 -1.208350 -0.777869 60.082233 0.607457 0.727061 -0.319966 0.289954 0.957154 1 0 1.000000
black
  0 0.268257 -2.285735 59.196842 0.690880 0.657517 -0.300593 0.219592 0.654388 1 0 1.000000
  0 -0.392550 -1.371745 59.705730 0.735094 0.662669 -0.143203 0.234682 0.816444 1 0 1.000000
  0 -0.389385 -1.450508 59.787262 0.422588 -0.299520 0.855399 0.234682 0.816444 1 0 1.000000
black
  0 -0.709749 -1.329887 59.503555 0.571838 0.645365 -0.506463 0.289954 0.816444 1 0 1.000000
  0 -0.392550 -1.371745 59.705730 0.735094 0.662669 -0.143203 0.234682 0.816444 1 0 1.000000
  0 0.268257 -2.285735 59.196842 0.690880 0.657517 -0.300593 0.219592 0.654388 1 0 1.000000
black
  0 -1.205184 -0.856611 60.163715 -0.607498 -0.727041 0.319933 0.289954 0.957154 1 0 1.000000
  0 -0.706584 -1.408662 59.585056 -0.569715 -0.648643 0.504665 0.289954 0.816444 1 0 1.000000
  0 -0.389385 -1.450508 59.787262 0.422588 -0.299520 0.855399 0.234682 0.816444 1 0 1.000000
black
  0 -1.208350 -0.777869 60.082233 0.607457 0.727061 -0.319966 0.289954 0.957154 1 0 1.000000
  0 -0.709749 -1.329887 59.503555 0.571838 0.645365 -0.506463 0.289954 0.816444 1 0 1.000000
  0 -1.026947 -1.078690 59.220875 -0.167434 0.472875 -0.865075 0.345226 0.816444 1 0 1.000000
black
  0 -1.026947 -1.078690 59.220875 -0.167434 0.472875 -0.865075 0.345226 0.816444 1 0 1.000000
  0 -1.525548 -0.319843 59.720203 -0.563413 0.162796 -0.809977 0.345226 0.957154 1 0 1.000000
  0 -1.208350 -0.777869 60.082233 0.607457 0.727061 -0.319966 0.289954 0.957154 1 0 1.000000
black
  0 -1.522383 -0.398588 59.801682 -0.873485 -0.447028 -0.192848 0.345226 0.957154 1 0 1.000000
  0 -1.525548 -0.319843 59.720203 -0.563413 0.162796 -0.809977 0.345226 0.957154 1 0 1.000000
  0 -1.026947 -1.078690 59.220875 -0.167434 0.472875 -0.865075 0.345226 0.816444 1 0 1.000000
black
  0 -1.205184 -0.856611 60.163715 -0.607498 -0.727041 0.319933 0.289954 0.957154 1 0 1.000000
  0 -1.522383 -0.398588 59.801682 -0.873485 -0.447028 -0.192848 0.345226 0.957154 1 0 1.000000
  0 -1.023782 -1.157422 59.302395 -0.894414 -0.446468 -0.026278 0.345226 0.816444 1 0 1.000000
black
  0 -1.026947 -1.078690 59.220875 -0.167434 0.472875 -0.865075 0.345226 0.816444 1 0 1.000000
  0 -1.023782 -1.157422 59.302395 -0.894414 -0.446468 -0.026278 0.345226 0.816444 1 0 1.000000
  0 -1.522383 -0.398588 59.801682 -0.873485 -0.447028 -0.192848 0.345226 0.957154 1 0 1.000000
black
  0 -1.023782 -1.157422 59.302395 -0.894414 -0.446468 -0.026278 0.345226 0.816444 1 0 1.000000
  0 -0.706584 -1.408662 59.585056 -0.569715 -0.648643 0.504665 0.289954 0.816444 1 0 1.000000
  0 -1.205184 -0.856611 60.163715 -0.607498 -0.727041 0.319933 0.289954 0.957154 1 0 1.000000
black
  0 -0.539340 -2.690382 58.878151 -0.657025 0.113752 -0.745237 0.360314 0.654388 1 0 1.000000
  0 -1.026947 -1.078690 59.220875 -0.167434 0.472875 -0.865075 0.345226 0.816444 1 0 1.000000
  0 -0.709749 -1.329887 59.503555 0.571838 0.645365 -0.506463 0.289954 0.816444 1 0 1.000000
black
  0 -0.539340 -2.690382 58.878151 -0.657025 0.113752 -0.745237 0.360314 0.654388 1 0 1.000000
  0 -1.023782 -1.157422 59.302395 -0.894414 -0.446468 -0.026278 0.345226 0.816444 1 0 1.000000
  0 -1.026947 -1.078690 59.220875 -0.167434 0.472875 -0.865075 0.345226 0.816444 1 0 1.000000
black
  0 -0.709749 -1.329887 59.503555 0.571838 0.645365 -0.506463 0.289954 0.816444 1 0 1.000000
  0 -0.042781 -2.609455 58.937019 0.059991 0.534423 -0.843085 0.289954 0.628202 1 0 1.000000
  0 -0.539340 -2.690382 58.878151 -0.657025 0.113752 -0.745237 0.360314 0.654388 1 0 1.000000
black
  0 0.268257 -2.285735 59.196842 0.690880 0.657517 -0.300593 0.219592 0.654388 1 0 1.000000
  0 -0.042781 -2.609455 58.937019 0.059991 0.534423 -0.843085 0.289954 0.628202 1 0 1.000000
  0 -0.709749 -1.329887 59.503555 0.571838 0.645365 -0.506463 0.289954 0.816444 1 0 1.000000
black
  0 -0.539340 -2.690382 58.878151 -0.657025 0.113752 -0.745237 0.360314 0.654388 1 0 1.000000
  0 -0.536174 -2.769117 58.959663 -0.647894 -0.571174 0.503978 0.360314 0.654388 1 0 1.000000
  0 -1.023782 -1.157422 59.302395 -0.894414 -0.446468 -0.026278 0.345226 0.816444 1 0 1.000000
black
  0 -0.536174 -2.769117 58.959663 -0.647894 -0.571174 0.503978 0.360314 0.654388 1 0 1.000000
  0 -0.706584 -1.408662 59.585056 -0.569715 -0.648643 0.504665 0.289954 0.816444 1 0 1.000000
  0 -1.023782 -1.157422 59.302395 -0.894414 -0.446468 -0.026278 0.345226 0.816444 1 0 1.000000
black
  236 -0.051729 -3.571605 58.275623 -0.656949 0.185831 -0.730674 0.375404 0.492330 1 236 1.000000
  0 -0.539340 -2.690382 58.878151 -0.657025 0.113752 -0.745237 0.360314 0.654388 1 0 1.000000
  0 -0.042781 -2.609455 58.937019 0.059991 0.534423 -0.843085 0.289954 0.628202 1 0 1.000000
black
  0 -0.536174 -2.769117 58.959663 -0.647894 -0.571174 0.503978 0.360314 0.654388 1 0 1.000000
  0 -0.539340 -2.690382 58.878151 -0.657025 0.113752 -0.745237 0.360314 0.654388 1 0 1.000000
  236 -0.051729 -3.571605 58.275623 -0.656949 0.185831 -0.730674 0.375404 0.492330 1 236 1.000000
black
  0 -0.042781 -2.609455 58.937019 0.059991 0.534423 -0.843085 0.289954 0.628202 1 0 1.000000
  0 0.268257 -2.285735 59.196842 0.690880 0.657517 -0.300593 0.219592 0.654388 1 0 1.000000
  236 0.929068 -3.084988 58.643936 0.598838 0.752618 -0.273785 0.204502 0.492330 1 236 1.000000
black
  0 -0.042781 -2.609455 58.937019 0.059991 0.534423 -0.843085 0.289954 0.628202 1 0 1.000000
  236 0.624224 -3.556351 58.264263 -0.023053 0.654080 -0.756074 0.289954 0.439960 1 236 1.000000
  236 -0.051729 -3.571605 58.275623 -0.656949 0.185831 -0.730674 0.375404 0.492330 1 236 1.000000
black
  0 -0.042781 -2.609455 58.937019 0.059991 0.534423 -0.843085 0.289954 0.628202 1 0 1.000000
  236 0.929068 -3.084988 58.643936 0.598838 0.752618 -0.273785 0.204502 0.492330 1 236 1.000000
  236 0.624224 -3.556351 58.264263 -0.023053 0.654080 -0.756074 0.289954 0.439960 1 236 1.000000
black
  0 -0.389385 -1.450508 59.787262 0.422588 -0.299520 0.855399 0.234682 0.816444 1 0 1.000000
  0 0.271423 -2.364466 59.278366 0.438871 -0.158976 0.884375 0.219592 0.654388 1 0 1.000000
  0 0.268257 -2.285735 59.196842 0.690880 0.657517 -0.300593 0.219592 0.654388 1 0 1.000000
black
  0 0.271423 -2.364466 59.278366 0.438871 -0.158976 0.884375 0.219592 0.654388 1 0 1.000000
  236 0.929068 -3.084988 58.643936 0.598838 0.752618 -0.273785 0.204502 0.492330 1 236 1.000000
  0 0.268257 -2.285735 59.196842 0.690880 0.657517 -0.300593 0.219592 0.654388 1 0 1.000000
black
  0 0.271423 -2.364466 59.278366 0.438871 -0.158976 0.884375 0.219592 0.654388 1 0 1.000000
  0 -0.389385 -1.450508 59.787262 0.422588 -0.299520 0.855399 0.234682 0.816444 1 0 1.000000
  0 -0.706584 -1.408662 59.585056 -0.569715 -0.648643 0.504665 0.289954 0.816444 1 0 1.000000
black
  0 -0.536174 -2.769117 58.959663 -0.647894 -0.571174 0.503978 0.360314 0.654388 1 0 1.000000
  0 -0.039582 -2.612736 58.989540 -0.061543 -0.543976 0.836841 0.289954 0.628202 1 0 1.000000
  0 -0.706584 -1.408662 59.585056 -0.569715 -0.648643 0.504665 0.289954 0.816444 1 0 1.000000
black
  0 0.271423 -2.364466 59.278366 0.438871 -0.158976 0.884375 0.219592 0.654388 1 0 1.000000
  0 -0.706584 -1.408662 59.585056 -0.569715 -0.648643 0.504665 0.289954 0.816444 1 0 1.000000
  0 -0.039582 -2.612736 58.989540 -0.061543 -0.543976 0.836841 0.289954 0.628202 1 0 1.000000
black
  236 -0.051729 -3.571605 58.275623 -0.656949 0.185831 -0.730674 0.375404 0.492330 1 236 1.000000
  236 -0.048564 -3.653764 58.353714 -0.625018 -0.673747 0.394230 0.375404 0.492330 1 236 1.000000
  0 -0.536174 -2.769117 58.959663 -0.647894 -0.571174 0.503978 0.360314 0.654388 1 0 1.000000
black
  0 -0.039582 -2.612736 58.989540 -0.061543 -0.543976 0.836841 0.289954 0.628202 1 0 1.000000
  0 -0.536174 -2.769117 58.959663 -0.647894 -0.571174 0.503978 0.360314 0.654388 1 0 1.000000
  236 -0.048564 -3.653764 58.353714 -0.625018 -0.673747 0.394230 0.375404 0.492330 1 236 1.000000
black
  0 0.271423 -2.364466 59.278366 0.438871 -0.158976 0.884375 0.219592 0.654388 1 0 1.000000
  236 0.932233 -3.163751 58.725468 0.518262 -0.147265 0.842447 0.204502 0.492330 1 236 1.000000
  236 0.929068 -3.084988 58.643936 0.598838 0.752618 -0.273785 0.204502 0.492330 1 236 1.000000
black
  236 0.932233 -3.163751 58.725468 0.518262 -0.147265 0.842447 0.204502 0.492330 1 236 1.000000
  0 0.271423 -2.364466 59.278366 0.438871 -0.158976 0.884375 0.219592 0.654388 1 0 1.000000
  0 -0.039582 -2.612736 58.989540 -0.061543 -0.543976 0.836841 0.289954 0.628202 1 0 1.000000
black
  236 -0.048564 -3.653764 58.353714 -0.625018 -0.673747 0.394230 0.375404 0.492330 1 236 1.000000
  236 -0.051729 -3.571605 58.275623 -0.656949 0.185831 -0.730674 0.375404 0.492330 1 236 1.000000
  236 0.435878 -4.262254 57.576168 -0.655036 0.279801 -0.701883 0.390494 0.330276 1 236 1.000000
black
  236 0.435878 -4.262254 57.576168 -0.655036 0.279801 -0.701883 0.390494 0.330276 1 236 1.000000
  236 -0.051729 -3.571605 58.275623 -0.656949 0.185831 -0.730674 0.375404 0.492330 1 236 1.000000
  236 0.624224 -3.556351 58.264263 -0.023053 0.654080 -0.756074 0.289954 0.439960 1 236 1.000000
black
  236 -0.048564 -3.653764 58.353714 -0.625018 -0.673747 0.394230 0.375404 0.492330 1 236 1.000000
  236 0.627388 -3.638492 58.342312 0.014823 -0.644249 0.764672 0.289954 0.439960 1 236 1.000000
  0 -0.039582 -2.612736 58.989540 -0.061543 -0.543976 0.836841 0.289954 0.628202 1 0 1.000000
black
  0 -0.039582 -2.612736 58.989540 -0.061543 -0.543976 0.836841 0.289954 0.628202 1 0 1.000000
  236 0.627388 -3.638492 58.342312 0.014823 -0.644249 0.764672 0.289954 0.439960 1 236 1.000000
  236 0.932233 -3.163751 58.725468 0.518262 -0.147265 0.842447 0.204502 0.492330 1 236 1.000000
black
  236 0.435878 -4.262254 57.576168 -0.655036 0.279801 -0.701883 0.390494 0.330276 1 236 1.000000
  236 0.439043 -4.348567 57.649612 -0.612579 -0.741353 0.274121 0.390494 0.330276 1 236 1.000000
  236 -0.048564 -3.653764 58.353714 -0.625018 -0.673747 0.394230 0.375404 0.492330 1 236 1.000000
black
  236 0.439043 -4.348567 57.649612 -0.612579 -0.741353 0.274121 0.390494 0.330276 1 236 1.000000
  236 0.627388 -3.638492 58.342312 0.014823 -0.644249 0.764672 0.289954 0.439960 1 236 1.000000
  236 -0.048564 -3.653764 58.353714 -0.625018 -0.673747 0.394230 0.375404 0.492330 1 236 1.000000
black
  236 1.589875 -3.725153 58.047508 0.550180 0.807883 -0.211249 0.189412 0.330276 1 236 1.000000
  236 0.929068 -3.084988 58.643936 0.598838 0.752618 -0.273785 0.204502 0.492330 1 236 1.000000
  236 0.932233 -3.163751 58.725468 0.518262 -0.147265 0.842447 0.204502 0.492330 1 236 1.000000
black
  236 0.624224 -3.556351 58.264263 -0.023053 0.654080 -0.756074 0.289954 0.439960 1 236 1.000000
  236 0.929068 -3.084988 58.643936 0.598838 0.752618 -0.273785 0.204502 0.492330 1 236 1.000000
  236 1.589875 -3.725153 58.047508 0.550180 0.807883 -0.211249 0.189412 0.330276 1 236 1.000000
black
  236 1.593040 -3.807280 58.125591 0.577950 -0.187549 0.794229 0.189412 0.330276 1 236 1.000000
  236 0.932233 -3.163751 58.725468 0.518262 -0.147265 0.842447 0.204502 0.492330 1 236 1.000000
  236 0.627388 -3.638492 58.342312 0.014823 -0.644249 0.764672 0.289954 0.439960 1 236 1.000000
black
  236 1.589875 -3.725153 58.047508 0.550180 0.807883 -0.211249 0.189412 0.330276 1 236 1.000000
  236 0.932233 -3.163751 58.725468 0.518262 -0.147265 0.842447 0.204502 0.492330 1 236 1.000000
  236 1.593040 -3.807280 58.125591 0.577950 -0.187549 0.794229 0.189412 0.330276 1 236 1.000000
black
  236 0.624224 -3.556351 58.264263 -0.023053 0.654080 -0.756074 0.289954 0.439960 1 236 1.000000
  236 1.291224 -4.305372 57.488636 -0.031840 0.732901 -0.679590 0.289954 0.251714 1 236 1.000000
  236 0.435878 -4.262254 57.576168 -0.655036 0.279801 -0.701883 0.390494 0.330276 1 236 1.000000
black
  236 0.624224 -3.556351 58.264263 -0.023053 0.654080 -0.756074 0.289954 0.439960 1 236 1.000000
  236 1.589875 -3.725153 58.047508 0.550180 0.807883 -0.211249 0.189412 0.330276 1 236 1.000000
  236 1.291224 -4.305372 57.488636 -0.031840 0.732901 -0.679590 0.289954 0.251714 1 236 1.000000
black
  236 1.593040 -3.807280 58.125591 0.577950 -0.187549 0.794229 0.189412 0.330276 1 236 1.000000
  236 0.627388 -3.638492 58.342312 0.014823 -0.644249 0.764672 0.289954 0.439960 1 236 1.000000
  236 1.294389 -4.391670 57.562119 0.031804 -0.733032 0.679451 0.289954 0.251714 1 236 1.000000
black
  236 0.439043 -4.348567 57.649612 -0.612579 -0.741353 0.274121 0.390494 0.330276 1 236 1.000000
  236 1.294389 -4.391670 57.562119 0.031804 -0.733032 0.679451 0.289954 0.251714 1 236 1.000000
  236 0.627388 -3.638492 58.342312 0.014823 -0.644249 0.764672 0.289954 0.439960 1 236 1.000000
black
  236 2.250682 -4.330007 57.418289 0.761379 0.568357 -0.311885 0.174322 0.168216 1 236 1.000000
  236 1.589875 -3.725153 58.047508 0.550180 0.807883 -0.211249 0.189412 0.330276 1 236 1.000000
  236 1.593040 -3.807280 58.125591 0.577950 -0.187549 0.794229 0.189412 0.330276 1 236 1.000000
black
  236 1.291224 -4.305372 57.488636 -0.031840 0.732901 -0.679590 0.289954 0.251714 1 236 1.000000
  236 1.589875 -3.725153 58.047508 0.550180 0.807883 -0.211249 0.189412 0.330276 1 236 1.000000
  236 2.250682 -4.330007 57.418289 0.761379 0.568357 -0.311885 0.174322 0.168216 1 236 1.000000
black
  236 1.593040 -3.807280 58.125591 0.577950 -0.187549 0.794229 0.189412 0.330276 1 236 1.000000
  236 2.253847 -4.416317 57.491737 0.783381 -0.359939 0.506713 0.174322 0.168216 1 236 1.000000
  236 2.250682 -4.330007 57.418289 0.761379 0.568357 -0.311885 0.174322 0.168216 1 236 1.000000
black
  236 2.253847 -4.416317 57.491737 0.783381 -0.359939 0.506713 0.174322 0.168216 1 236 1.000000
  236 1.593040 -3.807280 58.125591 0.577950 -0.187549 0.794229 0.189412 0.330276 1 236 1.000000
  236 1.294389 -4.391670 57.562119 0.031804 -0.733032 0.679451 0.289954 0.251714 1 236 1.000000
black
  236 2.250682 -4.330007 57.418289 0.761379 0.568357 -0.311885 0.174322 0.168216 1 236 1.000000
  236 1.958226 -4.991767 56.653633 0.410491 0.004333 -0.911854 0.289954 0.063474 1 236 1.000000
  236 1.291224 -4.305372 57.488636 -0.031840 0.732901 -0.679590 0.289954 0.251714 1 236 1.000000
black
  236 2.253847 -4.416317 57.491737 0.783381 -0.359939 0.506713 0.174322 0.168216 1 236 1.000000
  236 1.958226 -4.991767 56.653633 0.410491 0.004333 -0.911854 0.289954 0.063474 1 236 1.000000
  236 2.250682 -4.330007 57.418289 0.761379 0.568357 -0.311885 0.174322 0.168216 1 236 1.000000
black
  236 0.923485 -4.889706 56.818172 -0.490398 0.054579 -0.869788 0.405586 0.168216 1 236 1.000000
  236 0.435878 -4.262254 57.576168 -0.655036 0.279801 -0.701883 0.390494 0.330276 1 236 1.000000
  236 1.291224 -4.305372 57.488636 -0.031840 0.732901 -0.679590 0.289954 0.251714 1 236 1.000000
black
  236 1.291224 -4.305372 57.488636 -0.031840 0.732901 -0.679590 0.289954 0.251714 1 236 1.000000
  236 1.958226 -4.991767 56.653633 0.410491 0.004333 -0.911854 0.289954 0.063474 1 236 1.000000
  236 0.923485 -4.889706 56.818172 -0.490398 0.054579 -0.869788 0.405586 0.168216 1 236 1.000000
black
  236 0.439043 -4.348567 57.649612 -0.612579 -0.741353 0.274121 0.390494 0.330276 1 236 1.000000
  236 0.435878 -4.262254 57.576168 -0.655036 0.279801 -0.701883 0.390494 0.330276 1 236 1.000000
  236 0.923485 -4.889706 56.818172 -0.490398 0.054579 -0.869788 0.405586 0.168216 1 236 1.000000
black
  236 2.253847 -4.416317 57.491737 0.783381 -0.359939 0.506713 0.174322 0.168216 1 236 1.000000
  236 1.961390 -5.078066 56.727119 0.443046 -0.882719 -0.156579 0.289954 0.063474 1 236 1.000000
  236 1.958226 -4.991767 56.653633 0.410491 0.004333 -0.911854 0.289954 0.063474 1 236 1.000000
black
  236 1.961390 -5.078066 56.727119 0.443046 -0.882719 -0.156579 0.289954 0.063474 1 236 1.000000
  236 0.923485 -4.889706 56.818172 -0.490398 0.054579 -0.869788 0.405586 0.168216 1 236 1.000000
  236 1.958226 -4.991767 56.653633 0.410491 0.004333 -0.911854 0.289954 0.063474 1 236 1.000000
black
  236 1.294389 -4.391670 57.562119 0.031804 -0.733032 0.679451 0.289954 0.251714 1 236 1.000000
  236 1.961390 -5.078066 56.727119 0.443046 -0.882719 -0.156579 0.289954 0.063474 1 236 1.000000
  236 2.253847 -4.416317 57.491737 0.783381 -0.359939 0.506713 0.174322 0.168216 1 236 1.000000
black
  236 0.923485 -4.889706 56.818172 -0.490398 0.054579 -0.869788 0.405586 0.168216 1 236 1.000000
  236 0.926650 -4.975974 56.891644 -0.455800 -0.887511 -0.067604 0.405586 0.168216 1 236 1.000000
  236 0.439043 -4.348567 57.649612 -0.612579 -0.741353 0.274121 0.390494 0.330276 1 236 1.000000
black
  236 0.926650 -4.975974 56.891644 -0.455800 -0.887511 -0.067604 0.405586 0.168216 1 236 1.000000
  236 1.294389 -4.391670 57.562119 0.031804 -0.733032 0.679451 0.289954 0.251714 1 236 1.000000
  236 0.439043 -4.348567 57.649612 -0.612579 -0.741353 0.274121 0.390494 0.330276 1 236 1.000000
black
  236 1.961390 -5.078066 56.727119 0.443046 -0.882719 -0.156579 0.289954 0.063474 1 236 1.000000
  236 0.926650 -4.975974 56.891644 -0.455800 -0.887511 -0.067604 0.405586 0.168216 1 236 1.000000
  236 0.923485 -4.889706 56.818172 -0.490398 0.054579 -0.869788 0.405586 0.168216 1 236 1.000000
black
  236 0.926650 -4.975974 56.891644 -0.455800 -0.887511 -0.067604 0.405586 0.168216 1 236 1.000000
  236 1.961390 -5.078066 56.727119 0.443046 -0.882719 -0.156579 0.289954 0.063474 1 236 1.000000
  236 1.294389 -4.391670 57.562119 0.031804 -0.733032 0.679451 0.289954 0.251714 1 236 1.000000
black
  0 0.000000 -2.927595 59.094215 0.000046 -0.819187 0.573527 0.798604 0.824544 1 0 1.000000
  0 0.039548 -2.919770 59.101311 0.110625 -0.797290 0.593372 0.806678 0.826708 1 0 1.000000
  0 0.000000 -2.874451 59.153366 0.000013 -0.671875 0.740665 0.798604 0.840694 1 0 1.000000
black
  0 0.076373 -2.951099 59.040966 0.213110 -0.881264 0.421851 0.811562 0.818412 1 0 1.000000
  0 0.039548 -2.919770 59.101311 0.110625 -0.797290 0.593372 0.806678 0.826708 1 0 1.000000
  0 0.000000 -2.927595 59.094215 0.000046 -0.819187 0.573527 0.798604 0.824544 1 0 1.000000
black
  0 0.000000 -2.966255 59.027218 -0.000007 -0.923534 0.383516 0.798658 0.814988 1 0 1.000000
  0 0.076373 -2.951099 59.040966 0.213110 -0.881264 0.421851 0.811562 0.818412 1 0 1.000000
  0 0.000000 -2.927595 59.094215 0.000046 -0.819187 0.573527 0.798604 0.824544 1 0 1.000000
black
  0 0.076373 -2.951099 59.040966 0.213110 -0.881264 0.421851 0.811562 0.818412 1 0 1.000000
  0 0.132291 -2.909693 59.078556 0.369378 -0.765620 0.526675 0.820772 0.827988 1 0 1.000000
  0 0.039548 -2.919770 59.101311 0.110625 -0.797290 0.593372 0.806678 0.826708 1 0 1.000000
black
  0 0.000000 -2.966255 59.027218 -0.000007 -0.923534 0.383516 0.798658 0.814988 1 0 1.000000
  0 0.000000 -2.927595 59.094215 0.000046 -0.819187 0.573527 0.798604 0.824544 1 0 1.000000
  0 -0.039548 -2.919770 59.101311 -0.110783 -0.797261 0.593381 0.790528 0.826708 1 0 1.000000
black
  0 -0.039548 -2.919770 59.101311 -0.110783 -0.797261 0.593381 0.790528 0.826708 1 0 1.000000
  0 0.000000 -2.927595 59.094215 0.000046 -0.819187 0.573527 0.798604 0.824544 1 0 1.000000
  0 0.000000 -2.874451 59.153366 0.000013 -0.671875 0.740665 0.798604 0.840694 1 0 1.000000
black
  0 0.107990 -2.966429 58.976242 0.314371 -0.925777 0.210018 0.818044 0.807408 1 0 1.000000
  0 0.076373 -2.951099 59.040966 0.213110 -0.881264 0.421851 0.811562 0.818412 1 0 1.000000
  0 0.000000 -2.966255 59.027218 -0.000007 -0.923534 0.383516 0.798658 0.814988 1 0 1.000000
black
  0 0.076373 -2.951099 59.040966 0.213110 -0.881264 0.421851 0.811562 0.818412 1 0 1.000000
  0 0.107990 -2.966429 58.976242 0.314371 -0.925777 0.210018 0.818044 0.807408 1 0 1.000000
  0 0.132291 -2.909693 59.078556 0.369378 -0.765620 0.526675 0.820772 0.827988 1 0 1.000000
black
  0 -0.076373 -2.951099 59.040966 -0.213127 -0.881250 0.421872 0.785786 0.818414 1 0 1.000000
  0 0.000000 -2.966255 59.027218 -0.000007 -0.923534 0.383516 0.798658 0.814988 1 0 1.000000
  0 -0.039548 -2.919770 59.101311 -0.110783 -0.797261 0.593381 0.790528 0.826708 1 0 1.000000
black
  0 0.132291 -2.909693 59.078556 0.369378 -0.765620 0.526675 0.820772 0.827988 1 0 1.000000
  0 0.068477 -2.898286 59.120811 0.191576 -0.737173 0.647977 0.812590 0.832620 1 0 1.000000
  0 0.039548 -2.919770 59.101311 0.110625 -0.797290 0.593372 0.806678 0.826708 1 0 1.000000
black
  0 0.039548 -2.919770 59.101311 0.110625 -0.797290 0.593372 0.806678 0.826708 1 0 1.000000
  0 0.068477 -2.898286 59.120811 0.191576 -0.737173 0.647977 0.812590 0.832620 1 0 1.000000
  0 0.000000 -2.874451 59.153366 0.000013 -0.671875 0.740665 0.798604 0.840694 1 0 1.000000
black
  0 -0.076373 -2.951099 59.040966 -0.213127 -0.881250 0.421872 0.785786 0.818414 1 0 1.000000
  0 -0.039548 -2.919770 59.101311 -0.110783 -0.797261 0.593381 0.790528 0.826708 1 0 1.000000
  0 -0.068477 -2.898286 59.120811 -0.191494 -0.737283 0.647876 0.784616 0.832620 1 0 1.000000
black
  0 -0.068477 -2.898286 59.120811 -0.191494 -0.737283 0.647876 0.784616 0.832620 1 0 1.000000
  0 -0.039548 -2.919770 59.101311 -0.110783 -0.797261 0.593381 0.790528 0.826708 1 0 1.000000
  0 0.000000 -2.874451 59.153366 0.000013 -0.671875 0.740665 0.798604 0.840694 1 0 1.000000
black
  0 0.000000 -2.987856 58.956795 0.000014 -0.988146 0.153517 0.798794 0.802186 1 0 1.000000
  0 0.000000 -2.966255 59.027218 -0.000007 -0.923534 0.383516 0.798658 0.814988 1 0 1.000000
  0 -0.076373 -2.951099 59.040966 -0.213127 -0.881250 0.421872 0.785786 0.818414 1 0 1.000000
black
  0 0.000000 -2.987856 58.956795 0.000014 -0.988146 0.153517 0.798794 0.802186 1 0 1.000000
  0 0.107990 -2.966429 58.976242 0.314371 -0.925777 0.210018 0.818044 0.807408 1 0 1.000000
  0 0.000000 -2.966255 59.027218 -0.000007 -0.923534 0.383516 0.798658 0.814988 1 0 1.000000
black
  0 -0.132291 -2.909693 59.078556 -0.369386 -0.765629 0.526655 0.776308 0.827772 1 0 1.000000
  0 -0.076373 -2.951099 59.040966 -0.213127 -0.881250 0.421872 0.785786 0.818414 1 0 1.000000
  0 -0.068477 -2.898286 59.120811 -0.191494 -0.737283 0.647876 0.784616 0.832620 1 0 1.000000
black
  0 -0.107990 -2.966429 58.976242 -0.314372 -0.925769 0.210051 0.779540 0.807256 1 0 1.000000
  0 0.000000 -2.987856 58.956795 0.000014 -0.988146 0.153517 0.798794 0.802186 1 0 1.000000
  0 -0.076373 -2.951099 59.040966 -0.213127 -0.881250 0.421872 0.785786 0.818414 1 0 1.000000
black
  0 -0.107990 -2.966429 58.976242 -0.314372 -0.925769 0.210051 0.779540 0.807256 1 0 1.000000
  0 -0.076373 -2.951099 59.040966 -0.213127 -0.881250 0.421872 0.785786 0.818414 1 0 1.000000
  0 -0.132291 -2.909693 59.078556 -0.369386 -0.765629 0.526655 0.776308 0.827772 1 0 1.000000
black
  0 -0.132291 -2.909693 59.078556 -0.369386 -0.765629 0.526655 0.776308 0.827772 1 0 1.000000
  0 -0.068477 -2.898286 59.120811 -0.191494 -0.737283 0.647876 0.784616 0.832620 1 0 1.000000
  0 -0.079061 -2.869022 59.147377 -0.221188 -0.655258 0.722297 0.782454 0.840694 1 0 1.000000
black
  0 -0.079061 -2.869022 59.147377 -0.221188 -0.655258 0.722297 0.782454 0.840694 1 0 1.000000
  0 -0.068477 -2.898286 59.120811 -0.191494 -0.737283 0.647876 0.784616 0.832620 1 0 1.000000
  0 0.000000 -2.874451 59.153366 0.000013 -0.671875 0.740665 0.798604 0.840694 1 0 1.000000
black
  0 -0.187086 -2.907835 59.029358 -0.544611 -0.755268 0.364650 0.765310 0.821210 1 0 1.000000
  0 -0.107990 -2.966429 58.976242 -0.314372 -0.925769 0.210051 0.779540 0.807256 1 0 1.000000
  0 -0.132291 -2.909693 59.078556 -0.369386 -0.765629 0.526655 0.776308 0.827772 1 0 1.000000
black
  0 -0.152745 -2.853153 59.129833 -0.426657 -0.607667 0.669854 0.772732 0.840560 1 0 1.000000
  0 -0.132291 -2.909693 59.078556 -0.369386 -0.765629 0.526655 0.776308 0.827772 1 0 1.000000
  0 -0.079061 -2.869022 59.147377 -0.221188 -0.655258 0.722297 0.782454 0.840694 1 0 1.000000
black
  0 -0.187086 -2.907835 59.029358 -0.544611 -0.755268 0.364650 0.765310 0.821210 1 0 1.000000
  0 -0.132291 -2.909693 59.078556 -0.369386 -0.765629 0.526655 0.776308 0.827772 1 0 1.000000
  0 -0.152745 -2.853153 59.129833 -0.426657 -0.607667 0.669854 0.772732 0.840560 1 0 1.000000
black
  0 0.000000 -2.990837 58.887867 -0.000003 -0.993379 -0.114887 0.799012 0.787496 1 0 1.000000
  0 0.000000 -2.987856 58.956795 0.000014 -0.988146 0.153517 0.798794 0.802186 1 0 1.000000
  0 -0.107990 -2.966429 58.976242 -0.314372 -0.925769 0.210051 0.779540 0.807256 1 0 1.000000
black
  0 -0.132291 -2.964571 58.911663 -0.406583 -0.912661 -0.041717 0.772458 0.794434 1 0 1.000000
  0 -0.107990 -2.966429 58.976242 -0.314372 -0.925769 0.210051 0.779540 0.807256 1 0 1.000000
  0 -0.187086 -2.907835 59.029358 -0.544611 -0.755268 0.364650 0.765310 0.821210 1 0 1.000000
black
  0 -0.132291 -2.964571 58.911663 -0.406583 -0.912661 -0.041717 0.772458 0.794434 1 0 1.000000
  0 0.000000 -2.990837 58.887867 -0.000003 -0.993379 -0.114887 0.799012 0.787496 1 0 1.000000
  0 -0.107990 -2.966429 58.976242 -0.314372 -0.925769 0.210051 0.779540 0.807256 1 0 1.000000
black
  0 -0.216015 -2.827845 59.101936 -0.629021 -0.522282 0.575807 0.760068 0.840398 1 0 1.000000
  0 -0.187086 -2.907835 59.029358 -0.544611 -0.755268 0.364650 0.765310 0.821210 1 0 1.000000
  0 -0.152745 -2.853153 59.129833 -0.426657 -0.607667 0.669854 0.772732 0.840560 1 0 1.000000
black
  0 -0.229118 -2.892860 58.976723 -0.704082 -0.692281 0.158164 0.752694 0.813594 1 0 1.000000
  0 -0.132291 -2.964571 58.911663 -0.406583 -0.912661 -0.041717 0.772458 0.794434 1 0 1.000000
  0 -0.187086 -2.907835 59.029358 -0.544611 -0.755268 0.364650 0.765310 0.821210 1 0 1.000000
black
  0 -0.229118 -2.892860 58.976723 -0.704082 -0.692281 0.158164 0.752694 0.813594 1 0 1.000000
  0 -0.187086 -2.907835 59.029358 -0.544611 -0.755268 0.364650 0.765310 0.821210 1 0 1.000000
  0 -0.216015 -2.827845 59.101936 -0.629021 -0.522282 0.575807 0.760068 0.840398 1 0 1.000000
black
  0 -0.132291 -2.796553 59.181168 -0.369418 -0.449602 0.813258 0.776522 0.853240 1 0 1.000000
  0 -0.152745 -2.853153 59.129833 -0.426657 -0.607667 0.669854 0.772732 0.840560 1 0 1.000000
  0 -0.079061 -2.869022 59.147377 -0.221188 -0.655258 0.722297 0.782454 0.840694 1 0 1.000000
black
  0 -0.216015 -2.827845 59.101936 -0.629021 -0.522282 0.575807 0.760068 0.840398 1 0 1.000000
  0 -0.152745 -2.853153 59.129833 -0.426657 -0.607667 0.669854 0.772732 0.840560 1 0 1.000000
  0 -0.132291 -2.796553 59.181168 -0.369418 -0.449602 0.813258 0.776522 0.853240 1 0 1.000000
black
  0 -0.068477 -2.839768 59.173908 -0.191516 -0.573153 0.796754 0.784616 0.848770 1 0 1.000000
  0 -0.132291 -2.796553 59.181168 -0.369418 -0.449602 0.813258 0.776522 0.853240 1 0 1.000000
  0 -0.079061 -2.869022 59.147377 -0.221188 -0.655258 0.722297 0.782454 0.840694 1 0 1.000000
black
  0 -0.068477 -2.839768 59.173908 -0.191516 -0.573153 0.796754 0.784616 0.848770 1 0 1.000000
  0 -0.079061 -2.869022 59.147377 -0.221188 -0.655258 0.722297 0.782454 0.840694 1 0 1.000000
  0 0.000000 -2.874451 59.153366 0.000013 -0.671875 0.740665 0.798604 0.840694 1 0 1.000000
black
  0 -0.264548 -2.794892 59.065548 -0.812946 -0.391386 0.431202 0.745406 0.840198 1 0 1.000000
  0 -0.229118 -2.892860 58.976723 -0.704082 -0.692281 0.158164 0.752694 0.813594 1 0 1.000000
  0 -0.216015 -2.827845 59.101936 -0.629021 -0.522282 0.575807 0.760068 0.840398 1 0 1.000000
black
  0 -0.039548 -2.818308 59.193352 -0.110636 -0.513131 0.851150 0.790528 0.854680 1 0 1.000000
  0 -0.068477 -2.839768 59.173908 -0.191516 -0.573153 0.796754 0.784616 0.848770 1 0 1.000000
  0 0.000000 -2.874451 59.153366 0.000013 -0.671875 0.740665 0.798604 0.840694 1 0 1.000000
black
  0 -0.132291 -2.796553 59.181168 -0.369418 -0.449602 0.813258 0.776522 0.853240 1 0 1.000000
  0 -0.068477 -2.839768 59.173908 -0.191516 -0.573153 0.796754 0.784616 0.848770 1 0 1.000000
  0 -0.039548 -2.818308 59.193352 -0.110636 -0.513131 0.851150 0.790528 0.854680 1 0 1.000000
black
  0 -0.264548 -2.794892 59.065548 -0.812946 -0.391386 0.431202 0.745406 0.840198 1 0 1.000000
  0 -0.216015 -2.827845 59.101936 -0.629021 -0.522282 0.575807 0.760068 0.840398 1 0 1.000000
  0 -0.187086 -2.747855 59.174503 -0.544605 -0.289577 0.787115 0.765274 0.859592 1 0 1.000000
black
  0 -0.187086 -2.747855 59.174503 -0.544605 -0.289577 0.787115 0.765274 0.859592 1 0 1.000000
  0 -0.216015 -2.827845 59.101936 -0.629021 -0.522282 0.575807 0.760068 0.840398 1 0 1.000000
  0 -0.132291 -2.796553 59.181168 -0.369418 -0.449602 0.813258 0.776522 0.853240 1 0 1.000000
black
  0 -0.255529 -2.865779 58.924191 -0.806470 -0.099893 -0.582776 0.737928 0.805120 1 0 1.000000
  0 -0.229118 -2.892860 58.976723 -0.704082 -0.692281 0.158164 0.752694 0.813594 1 0 1.000000
  0 -0.264548 -2.794892 59.065548 -0.812946 -0.391386 0.431202 0.745406 0.840198 1 0 1.000000
black
  0 -0.229118 -2.892860 58.976723 -0.704082 -0.692281 0.158164 0.752694 0.813594 1 0 1.000000
  0 -0.255529 -2.865779 58.924191 -0.806470 -0.099893 -0.582776 0.737928 0.805120 1 0 1.000000
  0 -0.132291 -2.964571 58.911663 -0.406583 -0.912661 -0.041717 0.772458 0.794434 1 0 1.000000
black
  0 -0.229118 -2.696923 59.154480 -0.704099 -0.090224 0.704346 0.752468 0.866856 1 0 1.000000
  0 -0.264548 -2.794892 59.065548 -0.812946 -0.391386 0.431202 0.745406 0.840198 1 0 1.000000
  0 -0.187086 -2.747855 59.174503 -0.544605 -0.289577 0.787115 0.765274 0.859592 1 0 1.000000
black
  0 -0.255529 -2.865779 58.924191 -0.806470 -0.099893 -0.582776 0.737928 0.805120 1 0 1.000000
  0 -0.147538 -2.945781 58.851585 -0.465631 -0.352397 -0.811791 0.763812 0.779752 1 0 1.000000
  0 -0.132291 -2.964571 58.911663 -0.406583 -0.912661 -0.041717 0.772458 0.794434 1 0 1.000000
black
  0 -0.295076 -2.756505 59.023285 -0.931232 0.244780 -0.269982 0.728366 0.840248 1 0 1.000000
  0 -0.264548 -2.794892 59.065548 -0.812946 -0.391386 0.431202 0.745406 0.840198 1 0 1.000000
  0 -0.229118 -2.696923 59.154480 -0.704099 -0.090224 0.704346 0.752468 0.866856 1 0 1.000000
black
  0 -0.295076 -2.756505 59.023285 -0.931232 0.244780 -0.269982 0.728366 0.840248 1 0 1.000000
  0 -0.255529 -2.865779 58.924191 -0.806470 -0.099893 -0.582776 0.737928 0.805120 1 0 1.000000
  0 -0.264548 -2.794892 59.065548 -0.812946 -0.391386 0.431202 0.745406 0.840198 1 0 1.000000
black
  0 -0.147538 -2.945781 58.851585 -0.465631 -0.352397 -0.811791 0.763812 0.779752 1 0 1.000000
  0 0.000000 -2.975066 58.825058 -0.000008 -0.444907 -0.895577 0.799012 0.770470 1 0 1.000000
  0 -0.132291 -2.964571 58.911663 -0.406583 -0.912661 -0.041717 0.772458 0.794434 1 0 1.000000
black
  0 0.000000 -2.975066 58.825058 -0.000008 -0.444907 -0.895577 0.799012 0.770470 1 0 1.000000
  0 0.000000 -2.990837 58.887867 -0.000003 -0.993379 -0.114887 0.799012 0.787496 1 0 1.000000
  0 -0.132291 -2.964571 58.911663 -0.406583 -0.912661 -0.041717 0.772458 0.794434 1 0 1.000000
black
  0 -0.147538 -2.945781 58.851585 -0.465631 -0.352397 -0.811791 0.763812 0.779752 1 0 1.000000
  0 -0.255529 -2.865779 58.924191 -0.806470 -0.099893 -0.582776 0.737928 0.805120 1 0 1.000000
  0 0.000000 -2.707175 58.968887 -0.000001 0.671819 -0.740715 0.798604 0.840694 1 0 1.000000
black
  0 0.000000 -2.707175 58.968887 -0.000001 0.671819 -0.740715 0.798604 0.840694 1 0 1.000000
  0 0.000000 -2.975066 58.825058 -0.000008 -0.444907 -0.895577 0.799012 0.770470 1 0 1.000000
  0 -0.147538 -2.945781 58.851585 -0.465631 -0.352397 -0.811791 0.763812 0.779752 1 0 1.000000
black
  0 -0.255529 -2.865779 58.924191 -0.806470 -0.099893 -0.582776 0.737928 0.805120 1 0 1.000000
  0 -0.295076 -2.756505 59.023285 -0.931232 0.244780 -0.269982 0.728366 0.840248 1 0 1.000000
  0 0.000000 -2.707175 58.968887 -0.000001 0.671819 -0.740715 0.798604 0.840694 1 0 1.000000
black
  0 0.000000 -2.975066 58.825058 -0.000008 -0.444907 -0.895577 0.799012 0.770470 1 0 1.000000
  0 0.147538 -2.945781 58.851585 0.465649 -0.352362 -0.811796 0.834046 0.780060 1 0 1.000000
  0 0.000000 -2.990837 58.887867 -0.000003 -0.993379 -0.114887 0.799012 0.787496 1 0 1.000000
black
  0 0.147538 -2.945781 58.851585 0.465649 -0.352362 -0.811796 0.834046 0.780060 1 0 1.000000
  0 0.000000 -2.975066 58.825058 -0.000008 -0.444907 -0.895577 0.799012 0.770470 1 0 1.000000
  0 0.000000 -2.707175 58.968887 -0.000001 0.671819 -0.740715 0.798604 0.840694 1 0 1.000000
black
  0 0.147538 -2.945781 58.851585 0.465649 -0.352362 -0.811796 0.834046 0.780060 1 0 1.000000
  0 0.132291 -2.964571 58.911663 0.406580 -0.912663 -0.041693 0.825498 0.794768 1 0 1.000000
  0 0.000000 -2.990837 58.887867 -0.000003 -0.993379 -0.114887 0.799012 0.787496 1 0 1.000000
black
  0 0.000000 -2.990837 58.887867 -0.000003 -0.993379 -0.114887 0.799012 0.787496 1 0 1.000000
  0 0.132291 -2.964571 58.911663 0.406580 -0.912663 -0.041693 0.825498 0.794768 1 0 1.000000
  0 0.000000 -2.987856 58.956795 0.000014 -0.988146 0.153517 0.798794 0.802186 1 0 1.000000
black
  0 0.132291 -2.964571 58.911663 0.406580 -0.912663 -0.041693 0.825498 0.794768 1 0 1.000000
  0 0.107990 -2.966429 58.976242 0.314371 -0.925777 0.210018 0.818044 0.807408 1 0 1.000000
  0 0.000000 -2.987856 58.956795 0.000014 -0.988146 0.153517 0.798794 0.802186 1 0 1.000000
black
  0 0.147538 -2.945781 58.851585 0.465649 -0.352362 -0.811796 0.834046 0.780060 1 0 1.000000
  0 0.255529 -2.865779 58.924191 0.806470 -0.099891 -0.582776 0.859606 0.805926 1 0 1.000000
  0 0.132291 -2.964571 58.911663 0.406580 -0.912663 -0.041693 0.825498 0.794768 1 0 1.000000
black
  0 0.255529 -2.865779 58.924191 0.806470 -0.099891 -0.582776 0.859606 0.805926 1 0 1.000000
  0 0.147538 -2.945781 58.851585 0.465649 -0.352362 -0.811796 0.834046 0.780060 1 0 1.000000
  0 0.000000 -2.707175 58.968887 -0.000001 0.671819 -0.740715 0.798604 0.840694 1 0 1.000000
black
  0 0.107990 -2.966429 58.976242 0.314371 -0.925777 0.210018 0.818044 0.807408 1 0 1.000000
  0 0.132291 -2.964571 58.911663 0.406580 -0.912663 -0.041693 0.825498 0.794768 1 0 1.000000
  0 0.187086 -2.907835 59.029358 0.544695 -0.755222 0.364620 0.831944 0.821682 1 0 1.000000
black
  0 0.107990 -2.966429 58.976242 0.314371 -0.925777 0.210018 0.818044 0.807408 1 0 1.000000
  0 0.187086 -2.907835 59.029358 0.544695 -0.755222 0.364620 0.831944 0.821682 1 0 1.000000
  0 0.132291 -2.909693 59.078556 0.369378 -0.765620 0.526675 0.820772 0.827988 1 0 1.000000
black
  0 0.255529 -2.865779 58.924191 0.806470 -0.099891 -0.582776 0.859606 0.805926 1 0 1.000000
  0 0.229118 -2.892860 58.976723 0.704098 -0.692258 0.158188 0.844800 0.814458 1 0 1.000000
  0 0.132291 -2.964571 58.911663 0.406580 -0.912663 -0.041693 0.825498 0.794768 1 0 1.000000
black
  0 0.132291 -2.964571 58.911663 0.406580 -0.912663 -0.041693 0.825498 0.794768 1 0 1.000000
  0 0.229118 -2.892860 58.976723 0.704098 -0.692258 0.158188 0.844800 0.814458 1 0 1.000000
  0 0.187086 -2.907835 59.029358 0.544695 -0.755222 0.364620 0.831944 0.821682 1 0 1.000000
black
  0 0.229118 -2.892860 58.976723 0.704098 -0.692258 0.158188 0.844800 0.814458 1 0 1.000000
  0 0.255529 -2.865779 58.924191 0.806470 -0.099891 -0.582776 0.859606 0.805926 1 0 1.000000
  0 0.264548 -2.794892 59.065548 0.812972 -0.391339 0.431196 0.851572 0.841150 1 0 1.000000
black
  0 0.229118 -2.892860 58.976723 0.704098 -0.692258 0.158188 0.844800 0.814458 1 0 1.000000
  0 0.264548 -2.794892 59.065548 0.812972 -0.391339 0.431196 0.851572 0.841150 1 0 1.000000
  0 0.187086 -2.907835 59.029358 0.544695 -0.755222 0.364620 0.831944 0.821682 1 0 1.000000
black
  0 0.255529 -2.865779 58.924191 0.806470 -0.099891 -0.582776 0.859606 0.805926 1 0 1.000000
  0 0.295076 -2.756505 59.023285 0.931260 0.244818 -0.269850 0.868684 0.841004 1 0 1.000000
  0 0.264548 -2.794892 59.065548 0.812972 -0.391339 0.431196 0.851572 0.841150 1 0 1.000000
black
  0 0.295076 -2.756505 59.023285 0.931260 0.244818 -0.269850 0.868684 0.841004 1 0 1.000000
  0 0.255529 -2.865779 58.924191 0.806470 -0.099891 -0.582776 0.859606 0.805926 1 0 1.000000
  0 0.000000 -2.707175 58.968887 -0.000001 0.671819 -0.740715 0.798604 0.840694 1 0 1.000000
black
  0 0.264548 -2.794892 59.065548 0.812972 -0.391339 0.431196 0.851572 0.841150 1 0 1.000000
  0 0.216015 -2.827845 59.101936 0.628965 -0.522385 0.575776 0.836952 0.840906 1 0 1.000000
  0 0.187086 -2.907835 59.029358 0.544695 -0.755222 0.364620 0.831944 0.821682 1 0 1.000000
black
  0 0.187086 -2.907835 59.029358 0.544695 -0.755222 0.364620 0.831944 0.821682 1 0 1.000000
  0 0.216015 -2.827845 59.101936 0.628965 -0.522385 0.575776 0.836952 0.840906 1 0 1.000000
  0 0.132291 -2.909693 59.078556 0.369378 -0.765620 0.526675 0.820772 0.827988 1 0 1.000000
black
  0 0.295076 -2.756505 59.023285 0.931260 0.244818 -0.269850 0.868684 0.841004 1 0 1.000000
  0 0.255529 -2.647218 59.122417 0.806457 0.589750 0.042688 0.859148 0.876130 1 0 1.000000
  0 0.264548 -2.794892 59.065548 0.812972 -0.391339 0.431196 0.851572 0.841150 1 0 1.000000
black
  0 0.255529 -2.647218 59.122417 0.806457 0.589750 0.042688 0.859148 0.876130 1 0 1.000000
  0 0.295076 -2.756505 59.023285 0.931260 0.244818 -0.269850 0.868684 0.841004 1 0 1.000000
  0 0.000000 -2.707175 58.968887 -0.000001 0.671819 -0.740715 0.798604 0.840694 1 0 1.000000
black
  0 0.264548 -2.794892 59.065548 0.812972 -0.391339 0.431196 0.851572 0.841150 1 0 1.000000
  0 0.229118 -2.696923 59.154480 0.704213 -0.090177 0.704238 0.844348 0.867640 1 0 1.000000
  0 0.216015 -2.827845 59.101936 0.628965 -0.522385 0.575776 0.836952 0.840906 1 0 1.000000
black
  0 0.255529 -2.647218 59.122417 0.806457 0.589750 0.042688 0.859148 0.876130 1 0 1.000000
  0 0.229118 -2.696923 59.154480 0.704213 -0.090177 0.704238 0.844348 0.867640 1 0 1.000000
  0 0.264548 -2.794892 59.065548 0.812972 -0.391339 0.431196 0.851572 0.841150 1 0 1.000000
black
  0 0.216015 -2.827845 59.101936 0.628965 -0.522385 0.575776 0.836952 0.840906 1 0 1.000000
  0 0.152745 -2.853153 59.129833 0.426522 -0.607704 0.669906 0.824198 0.840752 1 0 1.000000
  0 0.132291 -2.909693 59.078556 0.369378 -0.765620 0.526675 0.820772 0.827988 1 0 1.000000
black
  0 0.132291 -2.909693 59.078556 0.369378 -0.765620 0.526675 0.820772 0.827988 1 0 1.000000
  0 0.152745 -2.853153 59.129833 0.426522 -0.607704 0.669906 0.824198 0.840752 1 0 1.000000
  0 0.068477 -2.898286 59.120811 0.191576 -0.737173 0.647977 0.812590 0.832620 1 0 1.000000
black
  0 0.229118 -2.696923 59.154480 0.704213 -0.090177 0.704238 0.844348 0.867640 1 0 1.000000
  0 0.187086 -2.747855 59.174503 0.544565 -0.289561 0.787149 0.831746 0.860070 1 0 1.000000
  0 0.216015 -2.827845 59.101936 0.628965 -0.522385 0.575776 0.836952 0.840906 1 0 1.000000
black
  0 0.216015 -2.827845 59.101936 0.628965 -0.522385 0.575776 0.836952 0.840906 1 0 1.000000
  0 0.187086 -2.747855 59.174503 0.544565 -0.289561 0.787149 0.831746 0.860070 1 0 1.000000
  0 0.152745 -2.853153 59.129833 0.426522 -0.607704 0.669906 0.824198 0.840752 1 0 1.000000
black
  0 0.229118 -2.696923 59.154480 0.704213 -0.090177 0.704238 0.844348 0.867640 1 0 1.000000
  0 0.255529 -2.647218 59.122417 0.806457 0.589750 0.042688 0.859148 0.876130 1 0 1.000000
  0 0.132291 -2.625211 59.219536 0.406483 0.130097 0.904348 0.824716 0.886744 1 0 1.000000
black
  0 0.229118 -2.696923 59.154480 0.704213 -0.090177 0.704238 0.844348 0.867640 1 0 1.000000
  0 0.132291 -2.625211 59.219536 0.406483 0.130097 0.904348 0.824716 0.886744 1 0 1.000000
  0 0.187086 -2.747855 59.174503 0.544565 -0.289561 0.787149 0.831746 0.860070 1 0 1.000000
black
  0 0.152745 -2.853153 59.129833 0.426522 -0.607704 0.669906 0.824198 0.840752 1 0 1.000000
  0 0.079061 -2.869022 59.147377 0.221268 -0.655299 0.722235 0.814754 0.840694 1 0 1.000000
  0 0.068477 -2.898286 59.120811 0.191576 -0.737173 0.647977 0.812590 0.832620 1 0 1.000000
black
  0 0.068477 -2.898286 59.120811 0.191576 -0.737173 0.647977 0.812590 0.832620 1 0 1.000000
  0 0.079061 -2.869022 59.147377 0.221268 -0.655299 0.722235 0.814754 0.840694 1 0 1.000000
  0 0.000000 -2.874451 59.153366 0.000013 -0.671875 0.740665 0.798604 0.840694 1 0 1.000000
black
  0 0.187086 -2.747855 59.174503 0.544565 -0.289561 0.787149 0.831746 0.860070 1 0 1.000000
  0 0.132291 -2.796553 59.181168 0.369408 -0.449603 0.813262 0.820754 0.853526 1 0 1.000000
  0 0.152745 -2.853153 59.129833 0.426522 -0.607704 0.669906 0.824198 0.840752 1 0 1.000000
black
  0 0.152745 -2.853153 59.129833 0.426522 -0.607704 0.669906 0.824198 0.840752 1 0 1.000000
  0 0.132291 -2.796553 59.181168 0.369408 -0.449603 0.813262 0.820754 0.853526 1 0 1.000000
  0 0.079061 -2.869022 59.147377 0.221268 -0.655299 0.722235 0.814754 0.840694 1 0 1.000000
black
  0 0.187086 -2.747855 59.174503 0.544565 -0.289561 0.787149 0.831746 0.860070 1 0 1.000000
  0 0.107990 -2.689262 59.227615 0.314410 -0.119101 0.941786 0.817556 0.874034 1 0 1.000000
  0 0.132291 -2.796553 59.181168 0.369408 -0.449603 0.813262 0.820754 0.853526 1 0 1.000000
black
  0 0.132291 -2.625211 59.219536 0.406483 0.130097 0.904348 0.824716 0.886744 1 0 1.000000
  0 0.107990 -2.689262 59.227615 0.314410 -0.119101 0.941786 0.817556 0.874034 1 0 1.000000
  0 0.187086 -2.747855 59.174503 0.544565 -0.289561 0.787149 0.831746 0.860070 1 0 1.000000
black
  0 0.132291 -2.796553 59.181168 0.369408 -0.449603 0.813262 0.820754 0.853526 1 0 1.000000
  0 0.068477 -2.839768 59.173908 0.191561 -0.573184 0.796721 0.812590 0.848770 1 0 1.000000
  0 0.079061 -2.869022 59.147377 0.221268 -0.655299 0.722235 0.814754 0.840694 1 0 1.000000
black
  0 0.079061 -2.869022 59.147377 0.221268 -0.655299 0.722235 0.814754 0.840694 1 0 1.000000
  0 0.068477 -2.839768 59.173908 0.191561 -0.573184 0.796721 0.812590 0.848770 1 0 1.000000
  0 0.000000 -2.874451 59.153366 0.000013 -0.671875 0.740665 0.798604 0.840694 1 0 1.000000
black
  0 0.107990 -2.689262 59.227615 0.314410 -0.119101 0.941786 0.817556 0.874034 1 0 1.000000
  0 0.076373 -2.755162 59.218719 0.213332 -0.333987 0.918119 0.811336 0.862832 1 0 1.000000
  0 0.132291 -2.796553 59.181168 0.369408 -0.449603 0.813262 0.820754 0.853526 1 0 1.000000
black
  0 0.132291 -2.796553 59.181168 0.369408 -0.449603 0.813262 0.820754 0.853526 1 0 1.000000
  0 0.076373 -2.755162 59.218719 0.213332 -0.333987 0.918119 0.811336 0.862832 1 0 1.000000
  0 0.068477 -2.839768 59.173908 0.191561 -0.573184 0.796721 0.812590 0.848770 1 0 1.000000
black
  0 0.068477 -2.839768 59.173908 0.191561 -0.573184 0.796721 0.812590 0.848770 1 0 1.000000
  0 0.039548 -2.818308 59.193352 0.110709 -0.513133 0.851139 0.806678 0.854680 1 0 1.000000
  0 0.000000 -2.874451 59.153366 0.000013 -0.671875 0.740665 0.798604 0.840694 1 0 1.000000
black
  0 0.076373 -2.755162 59.218719 0.213332 -0.333987 0.918119 0.811336 0.862832 1 0 1.000000
  0 0.039548 -2.818308 59.193352 0.110709 -0.513133 0.851139 0.806678 0.854680 1 0 1.000000
  0 0.068477 -2.839768 59.173908 0.191561 -0.573184 0.796721 0.812590 0.848770 1 0 1.000000
black
  0 0.039548 -2.818308 59.193352 0.110709 -0.513133 0.851139 0.806678 0.854680 1 0 1.000000
  0 0.000000 -2.810470 59.200474 -0.000011 -0.491177 0.871060 0.798604 0.856846 1 0 1.000000
  0 0.000000 -2.874451 59.153366 0.000013 -0.671875 0.740665 0.798604 0.840694 1 0 1.000000
black
  0 0.000000 -2.810470 59.200474 -0.000011 -0.491177 0.871060 0.798604 0.856846 1 0 1.000000
  0 -0.039548 -2.818308 59.193352 -0.110636 -0.513131 0.851150 0.790528 0.854680 1 0 1.000000
  0 0.000000 -2.874451 59.153366 0.000013 -0.671875 0.740665 0.798604 0.840694 1 0 1.000000
black
  0 0.000000 -2.739970 59.232464 -0.000104 -0.291801 0.956479 0.798462 0.866056 1 0 1.000000
  0 0.000000 -2.810470 59.200474 -0.000011 -0.491177 0.871060 0.798604 0.856846 1 0 1.000000
  0 0.039548 -2.818308 59.193352 0.110709 -0.513133 0.851139 0.806678 0.854680 1 0 1.000000
black
  0 0.000000 -2.810470 59.200474 -0.000011 -0.491177 0.871060 0.798604 0.856846 1 0 1.000000
  0 0.000000 -2.739970 59.232464 -0.000104 -0.291801 0.956479 0.798462 0.866056 1 0 1.000000
  0 -0.039548 -2.818308 59.193352 -0.110636 -0.513131 0.851150 0.790528 0.854680 1 0 1.000000
black
  0 0.076373 -2.755162 59.218719 0.213332 -0.333987 0.918119 0.811336 0.862832 1 0 1.000000
  0 0.000000 -2.739970 59.232464 -0.000104 -0.291801 0.956479 0.798462 0.866056 1 0 1.000000
  0 0.039548 -2.818308 59.193352 0.110709 -0.513133 0.851139 0.806678 0.854680 1 0 1.000000
black
  0 0.000000 -2.739970 59.232464 -0.000104 -0.291801 0.956479 0.798462 0.866056 1 0 1.000000
  0 -0.076373 -2.755162 59.218719 -0.213248 -0.333899 0.918170 0.785538 0.862998 1 0 1.000000
  0 -0.039548 -2.818308 59.193352 -0.110636 -0.513131 0.851150 0.790528 0.854680 1 0 1.000000
black
  0 -0.076373 -2.755162 59.218719 -0.213248 -0.333899 0.918170 0.785538 0.862998 1 0 1.000000
  0 -0.132291 -2.796553 59.181168 -0.369418 -0.449602 0.813258 0.776522 0.853240 1 0 1.000000
  0 -0.039548 -2.818308 59.193352 -0.110636 -0.513131 0.851150 0.790528 0.854680 1 0 1.000000
black
  0 0.000000 -2.667823 59.247097 -0.000035 -0.056697 0.998391 0.798306 0.878908 1 0 1.000000
  0 0.000000 -2.739970 59.232464 -0.000104 -0.291801 0.956479 0.798462 0.866056 1 0 1.000000
  0 0.076373 -2.755162 59.218719 0.213332 -0.333987 0.918119 0.811336 0.862832 1 0 1.000000
black
  0 0.107990 -2.689262 59.227615 0.314410 -0.119101 0.941786 0.817556 0.874034 1 0 1.000000
  0 0.000000 -2.667823 59.247097 -0.000035 -0.056697 0.998391 0.798306 0.878908 1 0 1.000000
  0 0.076373 -2.755162 59.218719 0.213332 -0.333987 0.918119 0.811336 0.862832 1 0 1.000000
black
  0 0.107990 -2.689262 59.227615 0.314410 -0.119101 0.941786 0.817556 0.874034 1 0 1.000000
  0 0.132291 -2.625211 59.219536 0.406483 0.130097 0.904348 0.824716 0.886744 1 0 1.000000
  0 0.000000 -2.667823 59.247097 -0.000035 -0.056697 0.998391 0.798306 0.878908 1 0 1.000000
black
  0 -0.107990 -2.689262 59.227615 -0.314349 -0.119135 0.941802 0.779122 0.873850 1 0 1.000000
  0 -0.076373 -2.755162 59.218719 -0.213248 -0.333899 0.918170 0.785538 0.862998 1 0 1.000000
  0 0.000000 -2.739970 59.232464 -0.000104 -0.291801 0.956479 0.798462 0.866056 1 0 1.000000
black
  0 -0.076373 -2.755162 59.218719 -0.213248 -0.333899 0.918170 0.785538 0.862998 1 0 1.000000
  0 -0.107990 -2.689262 59.227615 -0.314349 -0.119135 0.941802 0.779122 0.873850 1 0 1.000000
  0 -0.132291 -2.796553 59.181168 -0.369418 -0.449602 0.813258 0.776522 0.853240 1 0 1.000000
black
  0 0.000000 -2.667823 59.247097 -0.000035 -0.056697 0.998391 0.798306 0.878908 1 0 1.000000
  0 -0.107990 -2.689262 59.227615 -0.314349 -0.119135 0.941802 0.779122 0.873850 1 0 1.000000
  0 0.000000 -2.739970 59.232464 -0.000104 -0.291801 0.956479 0.798462 0.866056 1 0 1.000000
black
  0 -0.107990 -2.689262 59.227615 -0.314349 -0.119135 0.941802 0.779122 0.873850 1 0 1.000000
  0 -0.187086 -2.747855 59.174503 -0.544605 -0.289577 0.787115 0.765274 0.859592 1 0 1.000000
  0 -0.132291 -2.796553 59.181168 -0.369418 -0.449602 0.813258 0.776522 0.853240 1 0 1.000000
black
  0 -0.107990 -2.689262 59.227615 -0.314349 -0.119135 0.941802 0.779122 0.873850 1 0 1.000000
  0 -0.132291 -2.625211 59.219536 -0.406541 0.130036 0.904331 0.771730 0.886462 1 0 1.000000
  0 -0.187086 -2.747855 59.174503 -0.544605 -0.289577 0.787115 0.765274 0.859592 1 0 1.000000
black
  0 -0.132291 -2.625211 59.219536 -0.406541 0.130036 0.904331 0.771730 0.886462 1 0 1.000000
  0 -0.107990 -2.689262 59.227615 -0.314349 -0.119135 0.941802 0.779122 0.873850 1 0 1.000000
  0 0.000000 -2.667823 59.247097 -0.000035 -0.056697 0.998391 0.798306 0.878908 1 0 1.000000
black
  0 -0.132291 -2.625211 59.219536 -0.406541 0.130036 0.904331 0.771730 0.886462 1 0 1.000000
  0 -0.229118 -2.696923 59.154480 -0.704099 -0.090224 0.704346 0.752468 0.866856 1 0 1.000000
  0 -0.187086 -2.747855 59.174503 -0.544605 -0.289577 0.787115 0.765274 0.859592 1 0 1.000000
black
  0 0.000000 -2.598933 59.243359 0.000048 0.211169 0.977449 0.798220 0.893606 1 0 1.000000
  0 -0.132291 -2.625211 59.219536 -0.406541 0.130036 0.904331 0.771730 0.886462 1 0 1.000000
  0 0.000000 -2.667823 59.247097 -0.000035 -0.056697 0.998391 0.798306 0.878908 1 0 1.000000
black
  0 0.132291 -2.625211 59.219536 0.406483 0.130097 0.904348 0.824716 0.886744 1 0 1.000000
  0 0.000000 -2.598933 59.243359 0.000048 0.211169 0.977449 0.798220 0.893606 1 0 1.000000
  0 0.000000 -2.667823 59.247097 -0.000035 -0.056697 0.998391 0.798306 0.878908 1 0 1.000000
black
  0 -0.255529 -2.647218 59.122417 -0.806397 0.589827 0.042743 0.737648 0.875412 1 0 1.000000
  0 -0.229118 -2.696923 59.154480 -0.704099 -0.090224 0.704346 0.752468 0.866856 1 0 1.000000
  0 -0.132291 -2.625211 59.219536 -0.406541 0.130036 0.904331 0.771730 0.886462 1 0 1.000000
black
  0 -0.255529 -2.647218 59.122417 -0.806397 0.589827 0.042743 0.737648 0.875412 1 0 1.000000
  0 -0.295076 -2.756505 59.023285 -0.931232 0.244780 -0.269982 0.728366 0.840248 1 0 1.000000
  0 -0.229118 -2.696923 59.154480 -0.704099 -0.090224 0.704346 0.752468 0.866856 1 0 1.000000
black
  0 -0.295076 -2.756505 59.023285 -0.931232 0.244780 -0.269982 0.728366 0.840248 1 0 1.000000
  0 -0.255529 -2.647218 59.122417 -0.806397 0.589827 0.042743 0.737648 0.875412 1 0 1.000000
  0 0.000000 -2.707175 58.968887 -0.000001 0.671819 -0.740715 0.798604 0.840694 1 0 1.000000
black
  0 -0.147538 -2.567196 59.194977 -0.465588 0.842236 0.271782 0.763196 0.901230 1 0 1.000000
  0 -0.255529 -2.647218 59.122417 -0.806397 0.589827 0.042743 0.737648 0.875412 1 0 1.000000
  0 -0.132291 -2.625211 59.219536 -0.406541 0.130036 0.904331 0.771730 0.886462 1 0 1.000000
black
  0 -0.255529 -2.647218 59.122417 -0.806397 0.589827 0.042743 0.737648 0.875412 1 0 1.000000
  0 -0.147538 -2.567196 59.194977 -0.465588 0.842236 0.271782 0.763196 0.901230 1 0 1.000000
  0 0.000000 -2.707175 58.968887 -0.000001 0.671819 -0.740715 0.798604 0.840694 1 0 1.000000
black
  0 -0.147538 -2.567196 59.194977 -0.465588 0.842236 0.271782 0.763196 0.901230 1 0 1.000000
  0 -0.132291 -2.625211 59.219536 -0.406541 0.130036 0.904331 0.771730 0.886462 1 0 1.000000
  0 0.000000 -2.598933 59.243359 0.000048 0.211169 0.977449 0.798220 0.893606 1 0 1.000000
black
  0 0.000000 -2.537942 59.221519 0.000055 0.934699 0.355440 0.798220 0.910740 1 0 1.000000
  0 -0.147538 -2.567196 59.194977 -0.465588 0.842236 0.271782 0.763196 0.901230 1 0 1.000000
  0 0.000000 -2.598933 59.243359 0.000048 0.211169 0.977449 0.798220 0.893606 1 0 1.000000
black
  0 -0.147538 -2.567196 59.194977 -0.465588 0.842236 0.271782 0.763196 0.901230 1 0 1.000000
  0 0.000000 -2.537942 59.221519 0.000055 0.934699 0.355440 0.798220 0.910740 1 0 1.000000
  0 0.000000 -2.707175 58.968887 -0.000001 0.671819 -0.740715 0.798604 0.840694 1 0 1.000000
black
  0 0.000000 -2.537942 59.221519 0.000055 0.934699 0.355440 0.798220 0.910740 1 0 1.000000
  0 0.000000 -2.598933 59.243359 0.000048 0.211169 0.977449 0.798220 0.893606 1 0 1.000000
  0 0.132291 -2.625211 59.219536 0.406483 0.130097 0.904348 0.824716 0.886744 1 0 1.000000
black
  0 0.000000 -2.537942 59.221519 0.000055 0.934699 0.355440 0.798220 0.910740 1 0 1.000000
  0 0.147538 -2.567196 59.194977 0.465519 0.842250 0.271859 0.833364 0.901502 1 0 1.000000
  0 0.000000 -2.707175 58.968887 -0.000001 0.671819 -0.740715 0.798604 0.840694 1 0 1.000000
black
  0 0.147538 -2.567196 59.194977 0.465519 0.842250 0.271859 0.833364 0.901502 1 0 1.000000
  0 0.000000 -2.537942 59.221519 0.000055 0.934699 0.355440 0.798220 0.910740 1 0 1.000000
  0 0.132291 -2.625211 59.219536 0.406483 0.130097 0.904348 0.824716 0.886744 1 0 1.000000
black
  0 0.147538 -2.567196 59.194977 0.465519 0.842250 0.271859 0.833364 0.901502 1 0 1.000000
  0 0.255529 -2.647218 59.122417 0.806457 0.589750 0.042688 0.859148 0.876130 1 0 1.000000
  0 0.000000 -2.707175 58.968887 -0.000001 0.671819 -0.740715 0.798604 0.840694 1 0 1.000000
black
  0 0.255529 -2.647218 59.122417 0.806457 0.589750 0.042688 0.859148 0.876130 1 0 1.000000
  0 0.147538 -2.567196 59.194977 0.465519 0.842250 0.271859 0.833364 0.901502 1 0 1.000000
  0 0.132291 -2.625211 59.219536 0.406483 0.130097 0.904348 0.824716 0.886744 1 0 1.000000
black
  0 0.392550 -1.499570 59.754799 -0.727054 0.686578 0.001736 0.234682 0.816444 1 0 1.000000
  0 0.389385 -1.578301 59.836315 -0.366835 -0.451905 0.813151 0.234682 0.816444 1 0 1.000000
  0 0.887986 -0.890820 60.363026 -0.317136 -0.421068 0.849780 0.234682 0.957154 1 0 1.000000
black
  0 0.891151 -0.812075 60.281544 -0.755055 0.643583 -0.125275 0.234682 0.957154 1 0 1.000000
  0 0.392550 -1.499570 59.754799 -0.727054 0.686578 0.001736 0.234682 0.816444 1 0 1.000000
  0 0.887986 -0.890820 60.363026 -0.317136 -0.421068 0.849780 0.234682 0.957154 1 0 1.000000
black
  0 1.205184 -0.806250 60.144382 0.489086 -0.703241 0.515991 0.289954 0.957154 1 0 1.000000
  0 0.887986 -0.890820 60.363026 -0.317136 -0.421068 0.849780 0.234682 0.957154 1 0 1.000000
  0 0.389385 -1.578301 59.836315 -0.366835 -0.451905 0.813151 0.234682 0.816444 1 0 1.000000
black
  0 0.392550 -1.499570 59.754799 -0.727054 0.686578 0.001736 0.234682 0.816444 1 0 1.000000
  0 0.891151 -0.812075 60.281544 -0.755055 0.643583 -0.125275 0.234682 0.957154 1 0 1.000000
  0 1.208350 -0.727507 60.062897 -0.489094 0.703241 -0.515984 0.289954 0.957154 1 0 1.000000
black
  0 0.389385 -1.578301 59.836315 -0.366835 -0.451905 0.813151 0.234682 0.816444 1 0 1.000000
  0 0.706584 -1.507128 59.622856 0.391421 -0.697261 0.600513 0.289954 0.816444 1 0 1.000000
  0 1.205184 -0.806250 60.144382 0.489086 -0.703241 0.515991 0.289954 0.957154 1 0 1.000000
black
  0 1.208350 -0.727507 60.062897 -0.489094 0.703241 -0.515984 0.289954 0.957154 1 0 1.000000
  0 0.709749 -1.428385 59.541370 -0.391433 0.697261 -0.600506 0.289954 0.816444 1 0 1.000000
  0 0.392550 -1.499570 59.754799 -0.727054 0.686578 0.001736 0.234682 0.816444 1 0 1.000000
black
  0 0.389385 -1.578301 59.836315 -0.366835 -0.451905 0.813151 0.234682 0.816444 1 0 1.000000
  0 0.392550 -1.499570 59.754799 -0.727054 0.686578 0.001736 0.234682 0.816444 1 0 1.000000
  0 -0.268257 -2.047655 59.105461 -0.576726 0.747907 -0.328667 0.219592 0.654388 1 0 1.000000
black
  0 -0.268257 -2.047655 59.105461 -0.576726 0.747907 -0.328667 0.219592 0.654388 1 0 1.000000
  0 0.392550 -1.499570 59.754799 -0.727054 0.686578 0.001736 0.234682 0.816444 1 0 1.000000
  0 0.709749 -1.428385 59.541370 -0.391433 0.697261 -0.600506 0.289954 0.816444 1 0 1.000000
black
  0 -0.268257 -2.047655 59.105461 -0.576726 0.747907 -0.328667 0.219592 0.654388 1 0 1.000000
  0 -0.271423 -2.126386 59.186974 -0.580078 -0.060013 0.812347 0.219592 0.654388 1 0 1.000000
  0 0.389385 -1.578301 59.836315 -0.366835 -0.451905 0.813151 0.234682 0.816444 1 0 1.000000
black
  0 0.706584 -1.507128 59.622856 0.391421 -0.697261 0.600513 0.289954 0.816444 1 0 1.000000
  0 0.389385 -1.578301 59.836315 -0.366835 -0.451905 0.813151 0.234682 0.816444 1 0 1.000000
  0 -0.271423 -2.126386 59.186974 -0.580078 -0.060013 0.812347 0.219592 0.654388 1 0 1.000000
black
  0 1.026947 -1.419844 59.351837 0.398885 0.298339 -0.867113 0.345226 0.816444 1 0 1.000000
  0 0.709749 -1.428385 59.541370 -0.391433 0.697261 -0.600506 0.289954 0.816444 1 0 1.000000
  0 1.208350 -0.727507 60.062897 -0.489094 0.703241 -0.515984 0.289954 0.957154 1 0 1.000000
black
  0 1.208350 -0.727507 60.062897 -0.489094 0.703241 -0.515984 0.289954 0.957154 1 0 1.000000
  0 1.525548 -0.660996 59.851154 0.422647 0.287795 -0.859386 0.345226 0.957154 1 0 1.000000
  0 1.026947 -1.419844 59.351837 0.398885 0.298339 -0.867113 0.345226 0.816444 1 0 1.000000
black
  0 1.026947 -1.419844 59.351837 0.398885 0.298339 -0.867113 0.345226 0.816444 1 0 1.000000
  0 1.525548 -0.660996 59.851154 0.422647 0.287795 -0.859386 0.345226 0.957154 1 0 1.000000
  0 1.522383 -0.739742 59.932640 0.817755 -0.573001 0.054273 0.345226 0.957154 1 0 1.000000
black
  0 1.023782 -1.498575 59.433350 0.796899 -0.564721 0.214575 0.345226 0.816444 1 0 1.000000
  0 1.522383 -0.739742 59.932640 0.817755 -0.573001 0.054273 0.345226 0.957154 1 0 1.000000
  0 1.205184 -0.806250 60.144382 0.489086 -0.703241 0.515991 0.289954 0.957154 1 0 1.000000
black
  0 1.522383 -0.739742 59.932640 0.817755 -0.573001 0.054273 0.345226 0.957154 1 0 1.000000
  0 1.023782 -1.498575 59.433350 0.796899 -0.564721 0.214575 0.345226 0.816444 1 0 1.000000
  0 1.026947 -1.419844 59.351837 0.398885 0.298339 -0.867113 0.345226 0.816444 1 0 1.000000
black
  0 1.205184 -0.806250 60.144382 0.489086 -0.703241 0.515991 0.289954 0.957154 1 0 1.000000
  0 0.706584 -1.507128 59.622856 0.391421 -0.697261 0.600513 0.289954 0.816444 1 0 1.000000
  0 1.023782 -1.498575 59.433350 0.796899 -0.564721 0.214575 0.345226 0.816444 1 0 1.000000
black
  0 0.709749 -1.428385 59.541370 -0.391433 0.697261 -0.600506 0.289954 0.816444 1 0 1.000000
  0 1.026947 -1.419844 59.351837 0.398885 0.298339 -0.867113 0.345226 0.816444 1 0 1.000000
  0 0.539340 -2.543239 58.821671 0.650090 0.157494 -0.743356 0.360314 0.654388 1 0 1.000000
black
  0 1.026947 -1.419844 59.351837 0.398885 0.298339 -0.867113 0.345226 0.816444 1 0 1.000000
  0 1.023782 -1.498575 59.433350 0.796899 -0.564721 0.214575 0.345226 0.816444 1 0 1.000000
  0 0.539340 -2.543239 58.821671 0.650090 0.157494 -0.743356 0.360314 0.654388 1 0 1.000000
black
  0 1.023782 -1.498575 59.433350 0.796899 -0.564721 0.214575 0.345226 0.816444 1 0 1.000000
  0 0.706584 -1.507128 59.622856 0.391421 -0.697261 0.600513 0.289954 0.816444 1 0 1.000000
  0 0.536174 -2.621972 58.903183 0.658589 -0.622998 0.422060 0.360314 0.654388 1 0 1.000000
black
  0 1.023782 -1.498575 59.433350 0.796899 -0.564721 0.214575 0.345226 0.816444 1 0 1.000000
  0 0.536174 -2.621972 58.903183 0.658589 -0.622998 0.422060 0.360314 0.654388 1 0 1.000000
  0 0.539340 -2.543239 58.821671 0.650090 0.157494 -0.743356 0.360314 0.654388 1 0 1.000000
black
  0 0.539340 -2.543239 58.821671 0.650090 0.157494 -0.743356 0.360314 0.654388 1 0 1.000000
  0 0.042781 -2.445027 58.873905 0.032676 0.547757 -0.835999 0.289954 0.628202 1 0 1.000000
  0 0.709749 -1.428385 59.541370 -0.391433 0.697261 -0.600506 0.289954 0.816444 1 0 1.000000
black
  0 0.709749 -1.428385 59.541370 -0.391433 0.697261 -0.600506 0.289954 0.816444 1 0 1.000000
  0 0.042781 -2.445027 58.873905 0.032676 0.547757 -0.835999 0.289954 0.628202 1 0 1.000000
  0 -0.268257 -2.047655 59.105461 -0.576726 0.747907 -0.328667 0.219592 0.654388 1 0 1.000000
black
  237 0.051739 -3.401870 58.210472 0.656218 0.188144 -0.730739 0.375404 0.492330 1 237 1.000000
  0 0.539340 -2.543239 58.821671 0.650090 0.157494 -0.743356 0.360314 0.654388 1 0 1.000000
  0 0.536174 -2.621972 58.903183 0.658589 -0.622998 0.422060 0.360314 0.654388 1 0 1.000000
black
  0 0.042781 -2.445027 58.873905 0.032676 0.547757 -0.835999 0.289954 0.628202 1 0 1.000000
  0 0.539340 -2.543239 58.821671 0.650090 0.157494 -0.743356 0.360314 0.654388 1 0 1.000000
  237 0.051739 -3.401870 58.210472 0.656218 0.188144 -0.730739 0.375404 0.492330 1 237 1.000000
black
  0 0.706584 -1.507128 59.622856 0.391421 -0.697261 0.600513 0.289954 0.816444 1 0 1.000000
  0 0.039582 -2.523771 58.955395 -0.032664 -0.548026 0.835823 0.289954 0.628202 1 0 1.000000
  0 0.536174 -2.621972 58.903183 0.658589 -0.622998 0.422060 0.360314 0.654388 1 0 1.000000
black
  0 0.039582 -2.523771 58.955395 -0.032664 -0.548026 0.835823 0.289954 0.628202 1 0 1.000000
  0 0.706584 -1.507128 59.622856 0.391421 -0.697261 0.600513 0.289954 0.816444 1 0 1.000000
  0 -0.271423 -2.126386 59.186974 -0.580078 -0.060013 0.812347 0.219592 0.654388 1 0 1.000000
black
  0 0.536174 -2.621972 58.903183 0.658589 -0.622998 0.422060 0.360314 0.654388 1 0 1.000000
  237 0.048574 -3.483996 58.288559 0.624991 -0.687065 0.370577 0.375404 0.492330 1 237 1.000000
  237 0.051739 -3.401870 58.210472 0.656218 0.188144 -0.730739 0.375404 0.492330 1 237 1.000000
black
  237 0.048574 -3.483996 58.288559 0.624991 -0.687065 0.370577 0.375404 0.492330 1 237 1.000000
  0 0.536174 -2.621972 58.903183 0.658589 -0.622998 0.422060 0.360314 0.654388 1 0 1.000000
  0 0.039582 -2.523771 58.955395 -0.032664 -0.548026 0.835823 0.289954 0.628202 1 0 1.000000
black
  0 -0.268257 -2.047655 59.105461 -0.576726 0.747907 -0.328667 0.219592 0.654388 1 0 1.000000
  237 -0.929058 -2.859807 58.557510 -0.581173 0.748255 -0.319925 0.204502 0.492330 1 237 1.000000
  0 -0.271423 -2.126386 59.186974 -0.580078 -0.060013 0.812347 0.219592 0.654388 1 0 1.000000
black
  237 -0.929058 -2.859807 58.557510 -0.581173 0.748255 -0.319925 0.204502 0.492330 1 237 1.000000
  0 -0.268257 -2.047655 59.105461 -0.576726 0.747907 -0.328667 0.219592 0.654388 1 0 1.000000
  0 0.042781 -2.445027 58.873905 0.032676 0.547757 -0.835999 0.289954 0.628202 1 0 1.000000
black
  0 0.039582 -2.523771 58.955395 -0.032664 -0.548026 0.835823 0.289954 0.628202 1 0 1.000000
  0 -0.271423 -2.126386 59.186974 -0.580078 -0.060013 0.812347 0.219592 0.654388 1 0 1.000000
  237 -0.932223 -2.938538 58.639023 -0.568942 -0.108744 0.815156 0.204502 0.492330 1 237 1.000000
black
  237 -0.929058 -2.859807 58.557510 -0.581173 0.748255 -0.319925 0.204502 0.492330 1 237 1.000000
  237 -0.932223 -2.938538 58.639023 -0.568942 -0.108744 0.815156 0.204502 0.492330 1 237 1.000000
  0 -0.271423 -2.126386 59.186974 -0.580078 -0.060013 0.812347 0.219592 0.654388 1 0 1.000000
black
  237 0.051739 -3.401870 58.210472 0.656218 0.188144 -0.730739 0.375404 0.492330 1 237 1.000000
  237 -0.624214 -3.386616 58.199112 0.040082 0.637280 -0.769589 0.289954 0.439960 1 237 1.000000
  0 0.042781 -2.445027 58.873905 0.032676 0.547757 -0.835999 0.289954 0.628202 1 0 1.000000
black
  237 -0.624214 -3.386616 58.199112 0.040082 0.637280 -0.769589 0.289954 0.439960 1 237 1.000000
  237 -0.929058 -2.859807 58.557510 -0.581173 0.748255 -0.319925 0.204502 0.492330 1 237 1.000000
  0 0.042781 -2.445027 58.873905 0.032676 0.547757 -0.835999 0.289954 0.628202 1 0 1.000000
black
  237 -0.435869 -4.092519 57.511017 0.655043 0.279804 -0.701875 0.390494 0.330276 1 237 1.000000
  237 0.051739 -3.401870 58.210472 0.656218 0.188144 -0.730739 0.375404 0.492330 1 237 1.000000
  237 0.048574 -3.483996 58.288559 0.624991 -0.687065 0.370577 0.375404 0.492330 1 237 1.000000
black
  237 -0.624214 -3.386616 58.199112 0.040082 0.637280 -0.769589 0.289954 0.439960 1 237 1.000000
  237 0.051739 -3.401870 58.210472 0.656218 0.188144 -0.730739 0.375404 0.492330 1 237 1.000000
  237 -0.435869 -4.092519 57.511017 0.655043 0.279804 -0.701875 0.390494 0.330276 1 237 1.000000
black
  0 0.039582 -2.523771 58.955395 -0.032664 -0.548026 0.835823 0.289954 0.628202 1 0 1.000000
  237 -0.627379 -3.468757 58.277168 -0.039926 -0.637824 0.769147 0.289954 0.439960 1 237 1.000000
  237 0.048574 -3.483996 58.288559 0.624991 -0.687065 0.370577 0.375404 0.492330 1 237 1.000000
black
  237 -0.932223 -2.938538 58.639023 -0.568942 -0.108744 0.815156 0.204502 0.492330 1 237 1.000000
  237 -0.627379 -3.468757 58.277168 -0.039926 -0.637824 0.769147 0.289954 0.439960 1 237 1.000000
  0 0.039582 -2.523771 58.955395 -0.032664 -0.548026 0.835823 0.289954 0.628202 1 0 1.000000
black
  237 0.048574 -3.483996 58.288559 0.624991 -0.687065 0.370577 0.375404 0.492330 1 237 1.000000
  237 -0.439034 -4.178833 57.584461 0.612590 -0.741344 0.274121 0.390494 0.330276 1 237 1.000000
  237 -0.435869 -4.092519 57.511017 0.655043 0.279804 -0.701875 0.390494 0.330276 1 237 1.000000
black
  237 0.048574 -3.483996 58.288559 0.624991 -0.687065 0.370577 0.375404 0.492330 1 237 1.000000
  237 -0.627379 -3.468757 58.277168 -0.039926 -0.637824 0.769147 0.289954 0.439960 1 237 1.000000
  237 -0.439034 -4.178833 57.584461 0.612590 -0.741344 0.274121 0.390494 0.330276 1 237 1.000000
black
  237 -0.932223 -2.938538 58.639023 -0.568942 -0.108744 0.815156 0.204502 0.492330 1 237 1.000000
  237 -0.929058 -2.859807 58.557510 -0.581173 0.748255 -0.319925 0.204502 0.492330 1 237 1.000000
  237 -1.589866 -3.555384 57.982357 -0.556915 0.801190 -0.218953 0.189412 0.330276 1 237 1.000000
black
  237 -1.589866 -3.555384 57.982357 -0.556915 0.801190 -0.218953 0.189412 0.330276 1 237 1.000000
  237 -0.929058 -2.859807 58.557510 -0.581173 0.748255 -0.319925 0.204502 0.492330 1 237 1.000000
  237 -0.624214 -3.386616 58.199112 0.040082 0.637280 -0.769589 0.289954 0.439960 1 237 1.000000
black
  237 -0.627379 -3.468757 58.277168 -0.039926 -0.637824 0.769147 0.289954 0.439960 1 237 1.000000
  237 -0.932223 -2.938538 58.639023 -0.568942 -0.108744 0.815156 0.204502 0.492330 1 237 1.000000
  237 -1.593031 -3.637544 58.060448 -0.574782 -0.188503 0.796299 0.189412 0.330276 1 237 1.000000
black
  237 -1.593031 -3.637544 58.060448 -0.574782 -0.188503 0.796299 0.189412 0.330276 1 237 1.000000
  237 -0.932223 -2.938538 58.639023 -0.568942 -0.108744 0.815156 0.204502 0.492330 1 237 1.000000
  237 -1.589866 -3.555384 57.982357 -0.556915 0.801190 -0.218953 0.189412 0.330276 1 237 1.000000
black
  237 -0.435869 -4.092519 57.511017 0.655043 0.279804 -0.701875 0.390494 0.330276 1 237 1.000000
  237 -1.291217 -4.135636 57.423489 0.031838 0.732901 -0.679590 0.289954 0.251714 1 237 1.000000
  237 -0.624214 -3.386616 58.199112 0.040082 0.637280 -0.769589 0.289954 0.439960 1 237 1.000000
black
  237 -1.291217 -4.135636 57.423489 0.031838 0.732901 -0.679590 0.289954 0.251714 1 237 1.000000
  237 -1.589866 -3.555384 57.982357 -0.556915 0.801190 -0.218953 0.189412 0.330276 1 237 1.000000
  237 -0.624214 -3.386616 58.199112 0.040082 0.637280 -0.769589 0.289954 0.439960 1 237 1.000000
black
  237 -1.294382 -4.221935 57.496975 -0.031804 -0.733032 0.679450 0.289954 0.251714 1 237 1.000000
  237 -0.627379 -3.468757 58.277168 -0.039926 -0.637824 0.769147 0.289954 0.439960 1 237 1.000000
  237 -1.593031 -3.637544 58.060448 -0.574782 -0.188503 0.796299 0.189412 0.330276 1 237 1.000000
black
  237 -0.627379 -3.468757 58.277168 -0.039926 -0.637824 0.769147 0.289954 0.439960 1 237 1.000000
  237 -1.294382 -4.221935 57.496975 -0.031804 -0.733032 0.679450 0.289954 0.251714 1 237 1.000000
  237 -0.439034 -4.178833 57.584461 0.612590 -0.741344 0.274121 0.390494 0.330276 1 237 1.000000
black
  237 -1.593031 -3.637544 58.060448 -0.574782 -0.188503 0.796299 0.189412 0.330276 1 237 1.000000
  237 -1.589866 -3.555384 57.982357 -0.556915 0.801190 -0.218953 0.189412 0.330276 1 237 1.000000
  237 -2.250675 -4.160270 57.353142 -0.761371 0.568372 -0.311876 0.174322 0.168216 1 237 1.000000
black
  237 -2.250675 -4.160270 57.353142 -0.761371 0.568372 -0.311876 0.174322 0.168216 1 237 1.000000
  237 -1.589866 -3.555384 57.982357 -0.556915 0.801190 -0.218953 0.189412 0.330276 1 237 1.000000
  237 -1.291217 -4.135636 57.423489 0.031838 0.732901 -0.679590 0.289954 0.251714 1 237 1.000000
black
  237 -2.250675 -4.160270 57.353142 -0.761371 0.568372 -0.311876 0.174322 0.168216 1 237 1.000000
  237 -2.253840 -4.246580 57.426594 -0.783376 -0.359918 0.506735 0.174322 0.168216 1 237 1.000000
  237 -1.593031 -3.637544 58.060448 -0.574782 -0.188503 0.796299 0.189412 0.330276 1 237 1.000000
black
  237 -1.294382 -4.221935 57.496975 -0.031804 -0.733032 0.679450 0.289954 0.251714 1 237 1.000000
  237 -1.593031 -3.637544 58.060448 -0.574782 -0.188503 0.796299 0.189412 0.330276 1 237 1.000000
  237 -2.253840 -4.246580 57.426594 -0.783376 -0.359918 0.506735 0.174322 0.168216 1 237 1.000000
black
  237 -1.291217 -4.135636 57.423489 0.031838 0.732901 -0.679590 0.289954 0.251714 1 237 1.000000
  237 -1.958219 -4.822031 56.588490 -0.410487 0.004348 -0.911856 0.289954 0.063474 1 237 1.000000
  237 -2.250675 -4.160270 57.353142 -0.761371 0.568372 -0.311876 0.174322 0.168216 1 237 1.000000
black
  237 -2.250675 -4.160270 57.353142 -0.761371 0.568372 -0.311876 0.174322 0.168216 1 237 1.000000
  237 -1.958219 -4.822031 56.588490 -0.410487 0.004348 -0.911856 0.289954 0.063474 1 237 1.000000
  237 -2.253840 -4.246580 57.426594 -0.783376 -0.359918 0.506735 0.174322 0.168216 1 237 1.000000
black
  237 -1.291217 -4.135636 57.423489 0.031838 0.732901 -0.679590 0.289954 0.251714 1 237 1.000000
  237 -0.435869 -4.092519 57.511017 0.655043 0.279804 -0.701875 0.390494 0.330276 1 237 1.000000
  237 -0.923478 -4.719939 56.753014 0.490380 0.054626 -0.869795 0.405586 0.168216 1 237 1.000000
black
  237 -0.923478 -4.719939 56.753014 0.490380 0.054626 -0.869795 0.405586 0.168216 1 237 1.000000
  237 -1.958219 -4.822031 56.588490 -0.410487 0.004348 -0.911856 0.289954 0.063474 1 237 1.000000
  237 -1.291217 -4.135636 57.423489 0.031838 0.732901 -0.679590 0.289954 0.251714 1 237 1.000000
black
  237 -0.923478 -4.719939 56.753014 0.490380 0.054626 -0.869795 0.405586 0.168216 1 237 1.000000
  237 -0.435869 -4.092519 57.511017 0.655043 0.279804 -0.701875 0.390494 0.330276 1 237 1.000000
  237 -0.439034 -4.178833 57.584461 0.612590 -0.741344 0.274121 0.390494 0.330276 1 237 1.000000
black
  237 -1.958219 -4.822031 56.588490 -0.410487 0.004348 -0.911856 0.289954 0.063474 1 237 1.000000
  237 -1.961384 -4.908331 56.661968 -0.443037 -0.882719 -0.156608 0.289954 0.063474 1 237 1.000000
  237 -2.253840 -4.246580 57.426594 -0.783376 -0.359918 0.506735 0.174322 0.168216 1 237 1.000000
black
  237 -1.958219 -4.822031 56.588490 -0.410487 0.004348 -0.911856 0.289954 0.063474 1 237 1.000000
  237 -0.923478 -4.719939 56.753014 0.490380 0.054626 -0.869795 0.405586 0.168216 1 237 1.000000
  237 -1.961384 -4.908331 56.661968 -0.443037 -0.882719 -0.156608 0.289954 0.063474 1 237 1.000000
black
  237 -2.253840 -4.246580 57.426594 -0.783376 -0.359918 0.506735 0.174322 0.168216 1 237 1.000000
  237 -1.961384 -4.908331 56.661968 -0.443037 -0.882719 -0.156608 0.289954 0.063474 1 237 1.000000
  237 -1.294382 -4.221935 57.496975 -0.031804 -0.733032 0.679450 0.289954 0.251714 1 237 1.000000
black
  237 -0.439034 -4.178833 57.584461 0.612590 -0.741344 0.274121 0.390494 0.330276 1 237 1.000000
  237 -0.926643 -4.806239 56.826500 0.455803 -0.887507 -0.067637 0.405586 0.168216 1 237 1.000000
  237 -0.923478 -4.719939 56.753014 0.490380 0.054626 -0.869795 0.405586 0.168216 1 237 1.000000
black
  237 -0.439034 -4.178833 57.584461 0.612590 -0.741344 0.274121 0.390494 0.330276 1 237 1.000000
  237 -1.294382 -4.221935 57.496975 -0.031804 -0.733032 0.679450 0.289954 0.251714 1 237 1.000000
  237 -0.926643 -4.806239 56.826500 0.455803 -0.887507 -0.067637 0.405586 0.168216 1 237 1.000000
black
  237 -0.923478 -4.719939 56.753014 0.490380 0.054626 -0.869795 0.405586 0.168216 1 237 1.000000
  237 -0.926643 -4.806239 56.826500 0.455803 -0.887507 -0.067637 0.405586 0.168216 1 237 1.000000
  237 -1.961384 -4.908331 56.661968 -0.443037 -0.882719 -0.156608 0.289954 0.063474 1 237 1.000000
black
  237 -1.294382 -4.221935 57.496975 -0.031804 -0.733032 0.679450 0.289954 0.251714 1 237 1.000000
  237 -1.961384 -4.908331 56.661968 -0.443037 -0.882719 -0.156608 0.289954 0.063474 1 237 1.000000
  237 -0.926643 -4.806239 56.826500 0.455803 -0.887507 -0.067637 0.405586 0.168216 1 237 1.000000
end
